# Blender 4.0.2
# www.blender.org
mtllib block-snow-overhang-large-slope-narrow.mtl
o block-snow-overhang-large-slope-narrow
v 0.500000 0.733856 -0.322961
v 0.419820 0.920831 -0.272861
v 0.500000 -0.669151 -0.698896
v 0.419820 -0.856126 -0.748995
v 0.226250 0.998278 -0.252109
v 0.226250 -0.933573 -0.769747
v -0.226250 0.998278 -0.252109
v -0.226250 -0.933573 -0.769747
v -0.419820 0.920831 -0.272861
v -0.419820 -0.856126 -0.748995
v -0.500000 0.733856 -0.322961
v -0.500000 -0.669151 -0.698896
v 0.541062 -0.727946 -0.585240
v 0.500000 -0.733856 -0.457414
v 0.541062 0.727946 -0.195135
v 0.500000 0.669151 -0.081479
v -0.226250 -0.998278 -0.528266
v 0.226250 -0.998278 -0.528266
v -0.253625 -1.005589 -0.659634
v 0.253625 -1.005589 -0.659634
v -0.456874 -0.924269 -0.637845
v -0.541062 -0.727946 -0.585240
v -0.419820 -0.920831 -0.507514
v -0.500000 -0.733856 -0.457414
v 0.419820 0.856126 -0.031380
v 0.226250 0.933573 -0.010628
v 0.456874 0.924269 -0.142530
v 0.253625 1.005589 -0.120741
v 0.419820 -0.920831 -0.507514
v 0.456874 -0.924269 -0.637845
v -0.541062 0.727946 -0.195135
v -0.500000 0.669151 -0.081479
v -0.226250 0.933573 -0.010628
v -0.419820 0.856126 -0.031380
v -0.253625 1.005589 -0.120741
v -0.456874 0.924269 -0.142530
v 0.541063 0.414781 0.005353
v 0.541063 0.552450 0.003249
v 0.541062 0.296608 -0.065304
v 0.541062 0.233303 -0.187574
v 0.541063 0.668408 -0.070988
v 0.541062 0.243816 -0.324857
v 0.541063 0.727946 -0.195135
v 0.541062 -0.009360 -0.250495
v 0.541062 0.059475 -0.251547
v 0.541062 -0.068446 -0.285824
v 0.541062 -0.100098 -0.346958
v 0.541062 0.117454 -0.288666
v 0.541062 -0.094842 -0.415600
v 0.541062 0.147223 -0.350739
v 0.541062 -0.593886 -0.336019
v 0.541062 -0.490634 -0.337597
v 0.541062 -0.682516 -0.389012
v 0.541062 -0.729995 -0.480714
v 0.541062 -0.403666 -0.393274
v 0.541062 -0.722110 -0.583676
v 0.541062 -0.359013 -0.486385
v -0.541062 -0.061741 -0.264531
v -0.541062 -0.120827 -0.299859
v -0.541062 0.007094 -0.265583
v -0.541062 0.065073 -0.302701
v -0.541062 -0.152479 -0.360994
v -0.541062 0.094842 -0.364775
v -0.541062 -0.147223 -0.429636
v -0.541062 -0.556981 -0.255030
v -0.541063 -0.675154 -0.325687
v -0.541062 -0.419311 -0.257134
v -0.541062 -0.303353 -0.331370
v -0.541063 -0.738459 -0.447956
v -0.541062 -0.243816 -0.455518
v -0.541063 -0.727946 -0.585240
v -0.541062 0.487236 -0.046333
v -0.541062 0.398606 -0.099326
v -0.541062 0.590488 -0.047911
v -0.541062 0.677457 -0.103588
v -0.541062 0.351128 -0.191028
v -0.541062 0.722110 -0.196699
v -0.541062 0.359013 -0.293990
v 0.419820 0.762722 -0.010628
v 0.226250 0.842901 -0.010628
v 0.419820 0.762722 -0.081479
v 0.226250 0.842901 -0.081479
v -0.226250 0.842901 -0.010628
v -0.226250 0.842901 -0.081479
v -0.226250 -0.998278 -0.010628
v 0.226250 -0.998278 -0.010628
v -0.226250 -0.998278 -0.528266
v 0.226250 -0.998278 -0.528266
v -0.419820 0.762722 -0.010628
v -0.419820 0.762722 -0.081479
v 0.500000 0.669151 -0.081479
v 0.500000 0.669151 -0.010628
v -0.500000 0.569151 -0.010628
v -0.500000 0.569151 -0.081479
v 0.500000 -0.733856 -0.457414
v 0.500000 -0.733856 -0.010628
v -0.500000 -0.736588 -0.010628
v -0.500000 -0.736588 -0.457414
v -0.419820 -0.920831 -0.010628
v -0.419820 -0.920831 -0.507514
v 0.419820 -0.920831 -0.507514
v 0.419820 -0.920831 -0.010628
vn -0.0000 0.2588 -0.9659
vn 0.9774 0.2040 0.0547
vn 0.9255 -0.2487 0.2858
vn 0.9774 -0.2040 -0.0546
vn 0.9255 0.0725 0.3718
vn -0.2112 -0.9441 -0.2530
vn 0.1662 -0.9820 0.0893
vn -0.1662 -0.9820 0.0893
vn 0.2112 -0.9441 -0.2530
vn -0.6521 -0.7300 0.2047
vn -0.9774 -0.2040 -0.0546
vn -0.7071 -0.6830 -0.1830
vn -0.9774 -0.2040 -0.0547
vn -0.6521 -0.7300 0.2046
vn -0.9255 -0.2487 0.2858
vn 0.7071 0.6830 0.1830
vn 0.1662 0.8058 0.5684
vn 0.6521 0.5298 0.5422
vn 0.1662 0.8058 0.5683
vn 0.2112 0.9441 0.2530
vn 0.6521 -0.7300 0.2046
vn 0.6521 -0.7300 0.2047
vn 0.7071 -0.6830 -0.1830
vn -0.9774 0.2040 0.0547
vn -0.9255 0.0725 0.3718
vn -0.2112 0.9441 0.2530
vn -0.6521 0.5298 0.5422
vn -0.1662 0.8058 0.5684
vn -0.7071 0.6830 0.1830
vn -0.1662 0.8058 0.5683
vn -0.6521 0.5299 0.5422
vn -0.9255 0.0724 0.3718
vn 0.9774 -0.2040 -0.0547
vn 0.6521 0.5299 0.5422
vn -0.9255 -0.0725 -0.3718
vn -0.9255 0.2487 -0.2858
vn -0.6521 0.7300 -0.2046
vn -0.6521 0.7300 -0.2047
vn -0.9774 0.2040 0.0546
vn -0.1662 0.9820 -0.0893
vn 0.1662 0.9820 -0.0893
vn 0.9255 -0.0725 -0.3718
vn 0.9255 0.2487 -0.2858
vn 0.6521 -0.5298 -0.5422
vn 0.1662 -0.8058 -0.5684
vn -0.1662 -0.8058 -0.5683
vn 0.1662 -0.8058 -0.5683
vn 0.6521 -0.5299 -0.5422
vn 0.9255 -0.0724 -0.3718
vn -0.1662 -0.8058 -0.5684
vn -0.6521 -0.5298 -0.5422
vn -0.6521 -0.5299 -0.5422
vn -0.9255 -0.0724 -0.3718
vn 0.6521 0.7300 -0.2047
vn 0.6521 0.7300 -0.2046
vn 0.9774 0.2040 0.0546
vn -0.0000 -0.2588 0.9659
vn 1.0000 -0.0000 -0.0000
vn -1.0000 -0.0000 -0.0000
vn 0.5871 0.8095 -0.0000
vn 0.1951 0.9808 -0.0000
vn -0.1951 0.9808 -0.0000
vn -0.1230 -0.9924 -0.0000
vn 0.1892 -0.9819 -0.0000
vn -0.1892 -0.9819 -0.0000
vn 0.1230 -0.9924 -0.0000
vn -0.7071 0.7071 -0.0000
vn 0.9379 0.3469 -0.0000
vn 0.9688 0.2478 -0.0000
vn -0.9903 0.1392 -0.0000
vn -0.9808 0.1951 -0.0001
vn 0.9796 -0.2012 -0.0000
vn 0.9352 -0.3540 -0.0000
vn 0.9379 0.3469 -0.0001
vn -0.9808 0.1951 -0.0000
vn -0.9326 -0.3609 -0.0000
vn -0.9790 -0.2038 -0.0000
vn -0.4589 -0.8885 -0.0000
vn -0.6965 -0.7176 -0.0000
vn -0.9326 -0.3610 -0.0000
vn 0.6984 -0.7157 -0.0000
vn 0.4603 -0.8878 -0.0000
vn -0.0000 -0.0000 1.0000
vn -0.1891 -0.9820 -0.0000
vn 0.1891 -0.9820 -0.0000
vt 0.593750 0.225000
vt 0.593750 0.125000
vt 0.593750 0.025000
vt 0.593750 0.038711
vt 0.593750 0.075738
vt 0.593750 0.081855
vt 0.593750 0.075000
vt 0.593750 0.100369
vt 0.593750 0.060283
vt 0.593750 0.050000
vt 0.593750 0.088054
vt 0.718750 0.197625
vt 0.718750 0.225000
vt 0.718750 0.025000
vt 0.718750 0.052375
vt 0.718750 0.033018
s 0
usemtl colormap.009
f 3/1/1 2/1/1 1/1/1
f 2/1/1 3/1/1 4/1/1
f 2/1/1 4/1/1 5/1/1
f 5/1/1 4/1/1 6/1/1
f 5/1/1 6/1/1 7/1/1
f 7/1/1 6/1/1 8/1/1
f 7/1/1 8/1/1 9/1/1
f 9/1/1 8/1/1 10/1/1
f 9/1/1 10/1/1 11/1/1
f 11/1/1 10/1/1 12/1/1
f 15/2/2 14/3/3 13/2/4
f 14/3/3 15/2/2 16/3/5
f 19/2/6 18/3/7 17/3/8
f 18/3/7 19/2/6 20/2/9
f 23/3/10 22/2/11 21/2/12
f 22/2/13 23/3/14 24/3/15
f 27/2/16 26/3/17 25/3/18
f 26/3/19 27/2/16 28/2/20
f 20/2/9 29/3/21 18/3/7
f 29/3/22 20/2/9 30/2/23
f 24/3/15 31/2/24 22/2/11
f 31/2/24 24/3/15 32/3/25
f 35/2/26 34/3/27 33/3/28
f 34/3/27 35/2/26 36/2/29
f 28/2/20 33/3/30 26/3/19
f 33/3/30 28/2/20 35/2/26
f 23/3/14 19/2/6 17/3/8
f 19/2/6 23/3/10 21/2/12
f 34/3/31 31/2/24 32/3/32
f 31/2/24 34/3/27 36/2/29
f 13/2/4 29/3/22 30/2/23
f 29/3/21 13/2/33 14/3/3
f 15/2/2 25/3/34 16/3/5
f 25/3/18 15/2/2 27/2/16
f 31/2/24 12/1/35 22/2/13
f 12/1/35 31/2/24 11/1/36
f 31/2/24 9/1/37 11/1/36
f 9/1/38 31/2/39 36/2/29
f 35/2/26 9/1/38 36/2/29
f 9/1/37 35/2/26 7/1/40
f 28/2/20 7/1/40 35/2/26
f 7/1/40 28/2/20 5/1/41
f 3/1/42 15/2/2 13/2/33
f 15/2/2 3/1/42 1/1/43
f 20/2/9 4/1/44 30/2/23
f 4/1/44 20/2/9 6/1/45
f 8/1/46 20/2/9 19/2/6
f 20/2/9 8/1/46 6/1/47
f 4/1/44 13/2/33 30/2/23
f 13/2/33 4/1/48 3/1/49
f 21/2/12 8/1/46 19/2/6
f 8/1/50 21/2/12 10/1/51
f 22/2/13 10/1/51 21/2/12
f 10/1/52 22/2/13 12/1/53
f 2/1/54 28/2/20 27/2/16
f 28/2/20 2/1/55 5/1/41
f 2/1/55 15/2/2 1/1/43
f 15/2/56 2/1/54 27/2/16
f 25/3/57 14/3/57 16/3/57
f 14/3/57 25/3/57 29/3/57
f 29/3/57 25/3/57 26/3/57
f 29/3/57 26/3/57 18/3/57
f 18/3/57 26/3/57 33/3/57
f 18/3/57 33/3/57 17/3/57
f 17/3/57 33/3/57 34/3/57
f 17/3/57 34/3/57 23/3/57
f 23/3/57 34/3/57 32/3/57
f 23/3/57 32/3/57 24/3/57
f 39/4/58 38/4/58 37/3/58
f 38/4/58 39/4/58 40/5/58
f 38/4/58 40/5/58 41/5/58
f 41/5/58 40/5/58 42/2/58
f 41/5/58 42/2/58 43/2/58
f 46/6/58 45/6/58 44/7/58
f 45/6/58 46/6/58 47/8/58
f 45/6/58 47/8/58 48/8/58
f 48/8/58 47/8/58 49/2/58
f 48/8/58 49/2/58 50/2/58
f 53/9/58 52/9/58 51/10/58
f 52/9/58 53/9/58 54/11/58
f 52/9/58 54/11/58 55/11/58
f 55/11/58 54/11/58 56/2/58
f 55/11/58 56/2/58 57/2/58
f 60/6/59 59/6/59 58/7/59
f 59/6/59 60/6/59 61/8/59
f 59/6/59 61/8/59 62/8/59
f 62/8/59 61/8/59 63/2/59
f 62/8/59 63/2/59 64/2/59
f 67/4/59 66/4/59 65/3/59
f 66/4/59 67/4/59 68/5/59
f 66/4/59 68/5/59 69/5/59
f 69/5/59 68/5/59 70/2/59
f 69/5/59 70/2/59 71/2/59
f 74/9/59 73/9/59 72/10/59
f 73/9/59 74/9/59 75/11/59
f 73/9/59 75/11/59 76/11/59
f 76/11/59 75/11/59 77/2/59
f 76/11/59 77/2/59 78/2/59
f 81/12/60 80/13/61 79/13/60
f 80/13/61 81/12/60 82/12/61
f 82/12/61 83/13/62 80/13/61
f 83/13/62 82/12/61 84/12/62
f 87/14/63 86/13/64 85/13/65
f 86/13/64 87/14/63 88/14/66
f 84/12/62 89/13/67 83/13/62
f 89/13/67 84/12/62 90/12/67
f 81/12/60 92/13/68 91/12/69
f 92/13/68 81/12/60 79/13/60
f 89/13/67 94/12/70 93/13/71
f 94/12/70 89/13/67 90/12/67
f 91/12/69 96/13/72 95/15/73
f 96/13/72 91/12/69 92/13/74
f 93/13/75 98/15/76 97/13/77
f 98/15/76 93/13/75 94/12/70
f 97/13/77 100/16/78 99/13/79
f 100/16/78 97/13/77 98/15/80
f 95/15/73 102/13/81 101/16/82
f 102/13/81 95/15/73 96/13/72
f 79/13/83 96/13/83 92/13/83
f 96/13/83 79/13/83 102/13/83
f 102/13/83 79/13/83 80/13/83
f 102/13/83 80/13/83 86/13/83
f 86/13/83 80/13/83 83/13/83
f 86/13/83 83/13/83 85/13/83
f 85/13/83 83/13/83 89/13/83
f 85/13/83 89/13/83 99/13/83
f 99/13/83 89/13/83 93/13/83
f 99/13/83 93/13/83 97/13/83
f 100/16/78 85/13/84 99/13/79
f 85/13/84 100/16/78 87/14/63
f 86/13/85 101/16/82 102/13/81
f 101/16/82 86/13/85 88/14/66
f 3/1/1 2/1/1 1/1/1
f 2/1/1 3/1/1 4/1/1
f 2/1/1 4/1/1 5/1/1
f 5/1/1 4/1/1 6/1/1
f 5/1/1 6/1/1 7/1/1
f 7/1/1 6/1/1 8/1/1
f 7/1/1 8/1/1 9/1/1
f 9/1/1 8/1/1 10/1/1
f 9/1/1 10/1/1 11/1/1
f 11/1/1 10/1/1 12/1/1
f 15/2/2 14/3/3 13/2/4
f 14/3/3 15/2/2 16/3/5
f 19/2/6 18/3/7 17/3/8
f 18/3/7 19/2/6 20/2/9
f 23/3/10 22/2/11 21/2/12
f 22/2/13 23/3/14 24/3/15
f 27/2/16 26/3/17 25/3/18
f 26/3/19 27/2/16 28/2/20
f 20/2/9 29/3/21 18/3/7
f 29/3/22 20/2/9 30/2/23
f 24/3/15 31/2/24 22/2/11
f 31/2/24 24/3/15 32/3/25
f 35/2/26 34/3/27 33/3/28
f 34/3/27 35/2/26 36/2/29
f 28/2/20 33/3/30 26/3/19
f 33/3/30 28/2/20 35/2/26
f 23/3/14 19/2/6 17/3/8
f 19/2/6 23/3/10 21/2/12
f 34/3/31 31/2/24 32/3/32
f 31/2/24 34/3/27 36/2/29
f 13/2/4 29/3/22 30/2/23
f 29/3/21 13/2/33 14/3/3
f 15/2/2 25/3/34 16/3/5
f 25/3/18 15/2/2 27/2/16
f 31/2/24 12/1/35 22/2/13
f 12/1/35 31/2/24 11/1/36
f 31/2/24 9/1/37 11/1/36
f 9/1/38 31/2/39 36/2/29
f 35/2/26 9/1/38 36/2/29
f 9/1/37 35/2/26 7/1/40
f 28/2/20 7/1/40 35/2/26
f 7/1/40 28/2/20 5/1/41
f 3/1/42 15/2/2 13/2/33
f 15/2/2 3/1/42 1/1/43
f 20/2/9 4/1/44 30/2/23
f 4/1/44 20/2/9 6/1/45
f 8/1/46 20/2/9 19/2/6
f 20/2/9 8/1/46 6/1/47
f 4/1/44 13/2/33 30/2/23
f 13/2/33 4/1/48 3/1/49
f 21/2/12 8/1/46 19/2/6
f 8/1/50 21/2/12 10/1/51
f 22/2/13 10/1/51 21/2/12
f 10/1/52 22/2/13 12/1/53
f 2/1/54 28/2/20 27/2/16
f 28/2/20 2/1/55 5/1/41
f 2/1/55 15/2/2 1/1/43
f 15/2/56 2/1/54 27/2/16
f 25/3/57 14/3/57 16/3/57
f 14/3/57 25/3/57 29/3/57
f 29/3/57 25/3/57 26/3/57
f 29/3/57 26/3/57 18/3/57
f 18/3/57 26/3/57 33/3/57
f 18/3/57 33/3/57 17/3/57
f 17/3/57 33/3/57 34/3/57
f 17/3/57 34/3/57 23/3/57
f 23/3/57 34/3/57 32/3/57
f 23/3/57 32/3/57 24/3/57
f 39/4/58 38/4/58 37/3/58
f 38/4/58 39/4/58 40/5/58
f 38/4/58 40/5/58 41/5/58
f 41/5/58 40/5/58 42/2/58
f 41/5/58 42/2/58 43/2/58
f 46/6/58 45/6/58 44/7/58
f 45/6/58 46/6/58 47/8/58
f 45/6/58 47/8/58 48/8/58
f 48/8/58 47/8/58 49/2/58
f 48/8/58 49/2/58 50/2/58
f 53/9/58 52/9/58 51/10/58
f 52/9/58 53/9/58 54/11/58
f 52/9/58 54/11/58 55/11/58
f 55/11/58 54/11/58 56/2/58
f 55/11/58 56/2/58 57/2/58
f 60/6/59 59/6/59 58/7/59
f 59/6/59 60/6/59 61/8/59
f 59/6/59 61/8/59 62/8/59
f 62/8/59 61/8/59 63/2/59
f 62/8/59 63/2/59 64/2/59
f 67/4/59 66/4/59 65/3/59
f 66/4/59 67/4/59 68/5/59
f 66/4/59 68/5/59 69/5/59
f 69/5/59 68/5/59 70/2/59
f 69/5/59 70/2/59 71/2/59
f 74/9/59 73/9/59 72/10/59
f 73/9/59 74/9/59 75/11/59
f 73/9/59 75/11/59 76/11/59
f 76/11/59 75/11/59 77/2/59
f 76/11/59 77/2/59 78/2/59
f 81/12/60 80/13/61 79/13/60
f 80/13/61 81/12/60 82/12/61
f 82/12/61 83/13/62 80/13/61
f 83/13/62 82/12/61 84/12/62
f 87/14/63 86/13/64 85/13/65
f 86/13/64 87/14/63 88/14/66
f 84/12/62 89/13/67 83/13/62
f 89/13/67 84/12/62 90/12/67
f 81/12/60 92/13/68 91/12/69
f 92/13/68 81/12/60 79/13/60
f 89/13/67 94/12/70 93/13/71
f 94/12/70 89/13/67 90/12/67
f 91/12/69 96/13/72 95/15/73
f 96/13/72 91/12/69 92/13/74
f 93/13/75 98/15/76 97/13/77
f 98/15/76 93/13/75 94/12/70
f 97/13/77 100/16/78 99/13/79
f 100/16/78 97/13/77 98/15/80
f 95/15/73 102/13/81 101/16/82
f 102/13/81 95/15/73 96/13/72
f 79/13/83 96/13/83 92/13/83
f 96/13/83 79/13/83 102/13/83
f 102/13/83 79/13/83 80/13/83
f 102/13/83 80/13/83 86/13/83
f 86/13/83 80/13/83 83/13/83
f 86/13/83 83/13/83 85/13/83
f 85/13/83 83/13/83 89/13/83
f 85/13/83 89/13/83 99/13/83
f 99/13/83 89/13/83 93/13/83
f 99/13/83 93/13/83 97/13/83
f 100/16/78 85/13/84 99/13/79
f 85/13/84 100/16/78 87/14/63
f 86/13/85 101/16/82 102/13/81
f 101/16/82 86/13/85 88/14/66
