# Blender 4.0.2
# www.blender.org
mtllib block-snow-curve.001.mtl
o block-snow-curve.001
v -0.899137 -0.500000 -0.000000
v -0.798274 -0.500000 -0.000000
v -0.868500 -0.500000 -0.232714
v -0.771074 -0.500000 -0.206609
v -0.691326 -0.500000 -0.399137
v -0.778676 -0.500000 -0.449569
v -0.564465 -0.500000 -0.564465
v -0.635786 -0.500000 -0.635786
v -0.399137 -0.500000 -0.691326
v -0.449569 -0.500000 -0.778676
v -0.206609 -0.500000 -0.771074
v 0.000000 -0.500000 -0.798274
v -0.232714 -0.500000 -0.868500
v 0.232714 -0.500000 -0.868500
v 0.000000 -0.500000 -0.899137
v 0.449569 -0.500000 -0.778676
v 0.206609 -0.500000 -0.771074
v 0.399137 -0.500000 -0.691326
v 0.635786 -0.500000 -0.635786
v 0.564465 -0.500000 -0.564465
v 0.778676 -0.500000 -0.449569
v 0.691326 -0.500000 -0.399137
v 0.868500 -0.500000 -0.232714
v 0.771074 -0.500000 -0.206609
v 0.899137 -0.500000 -0.000000
v 0.798274 -0.500000 -0.000000
v -0.866025 -0.400000 -0.500000
v -0.707107 -0.400000 -0.707107
v -0.866025 0.400000 -0.500000
v -0.707107 0.400000 -0.707107
v 0.000000 -0.400000 -1.000000
v 0.000000 0.400000 -1.000000
v -0.258819 -0.400000 -0.965926
v -0.258819 0.400000 -0.965926
v -1.000000 -0.400000 -0.000000
v -0.965926 -0.400000 -0.258819
v -1.000000 0.400000 -0.000000
v -0.965926 0.400000 -0.258819
v -0.500000 -0.400000 -0.866025
v -0.500000 0.400000 -0.866025
v 0.707107 -0.400000 -0.707107
v 0.866025 -0.400000 -0.500000
v 0.707107 0.400000 -0.707107
v 0.866025 0.400000 -0.500000
v 0.965926 -0.400000 -0.258819
v 0.965926 0.400000 -0.258819
v 0.258819 -0.400000 -0.965926
v 0.258819 0.400000 -0.965926
v 0.500000 -0.400000 -0.866025
v 0.500000 0.400000 -0.866025
v 1.000000 -0.400000 -0.000000
v 1.000000 0.400000 -0.000000
v -0.899137 0.500000 -0.000000
v -0.868500 0.500000 -0.232714
v -0.232714 0.500000 -0.868500
v 0.000000 0.500000 -0.899137
v 0.449569 0.500000 -0.778676
v 0.232714 0.500000 -0.868500
v 0.868500 0.500000 -0.232714
v 0.778676 0.500000 -0.449569
v -0.635786 0.500000 -0.635786
v -0.449569 0.500000 -0.778676
v -0.778676 0.500000 -0.449569
v 0.635786 0.500000 -0.635786
v 0.899137 0.500000 -0.000000
v 0.798274 0.500000 -0.000000
v 0.771074 0.500000 -0.206609
v 0.691326 0.500000 -0.399137
v 0.564465 0.500000 -0.564465
v 0.399137 0.500000 -0.691326
v 0.206609 0.500000 -0.771074
v 0.000000 0.500000 -0.798274
v -0.206609 0.500000 -0.771074
v -0.399137 0.500000 -0.691326
v -0.564465 0.500000 -0.564465
v -0.691326 0.500000 -0.399137
v -0.771074 0.500000 -0.206609
v -0.798274 0.500000 -0.000000
v -0.771074 -0.400000 -0.206609
v -0.798274 -0.400000 -0.000000
v -0.691326 -0.400000 -0.399137
v -0.564465 -0.400000 -0.564465
v -0.399137 -0.400000 -0.691326
v -0.206609 -0.400000 -0.771074
v 0.000000 -0.400000 -0.798274
v 0.206609 -0.400000 -0.771074
v 0.399137 -0.400000 -0.691326
v 0.564465 -0.400000 -0.564465
v 0.691326 -0.400000 -0.399137
v 0.771074 -0.400000 -0.206609
v 0.798274 -0.400000 -0.000000
v -0.771074 0.400000 -0.206609
v -0.798274 0.400000 -0.000000
v -0.206609 0.400000 -0.771074
v -0.399137 0.400000 -0.691326
v 0.564465 0.400000 -0.564465
v 0.691326 0.400000 -0.399137
v 0.771074 0.400000 -0.206609
v 0.798274 0.400000 -0.000000
v 0.399137 0.400000 -0.691326
v -0.564465 0.400000 -0.564465
v -0.691326 0.400000 -0.399137
v 0.206609 0.400000 -0.771074
v 0.000000 0.400000 -0.798274
v 0.798274 -0.400000 -0.000000
v -0.798274 -0.400000 -0.000000
v 0.000000 -0.400000 -0.798274
v 0.798274 0.400000 0.000000
v -0.798274 0.400000 -0.000000
v -0.000000 0.400000 -0.798274
vn -0.0000 -1.0000 -0.0000
vn -0.8033 0.3737 -0.4637
vn -0.6559 -0.3737 -0.6559
vn -0.8032 -0.3737 -0.4638
vn -0.8033 0.3737 -0.4638
vn -0.6559 0.3737 -0.6558
vn -0.2401 -0.3737 -0.8959
vn -0.0000 0.3737 -0.9275
vn -0.0000 -0.3737 -0.9275
vn -0.2400 0.3737 -0.8959
vn -0.9207 0.3710 -0.1212
vn -0.8959 -0.3737 -0.2401
vn -0.9207 -0.3710 -0.1212
vn -0.8959 0.3737 -0.2400
vn -0.8033 -0.3737 -0.4638
vn -0.8959 0.3737 -0.2401
vn -0.4637 0.3737 -0.8033
vn -0.4638 -0.3737 -0.8032
vn -0.4638 0.3737 -0.8033
vn -0.6558 0.3737 -0.6559
vn -0.4638 -0.3737 -0.8033
vn -0.2401 0.3737 -0.8959
vn 0.6559 0.3737 -0.6559
vn 0.8033 -0.3737 -0.4638
vn 0.6559 -0.3737 -0.6558
vn 0.8033 -0.3737 -0.4637
vn 0.8032 0.3737 -0.4638
vn 0.8033 0.3737 -0.4638
vn 0.8959 -0.3737 -0.2401
vn 0.8959 -0.3737 -0.2400
vn 0.8959 0.3737 -0.2401
vn 0.2401 0.3737 -0.8959
vn 0.2400 -0.3737 -0.8959
vn 0.2401 -0.3737 -0.8959
vn 0.4638 0.3737 -0.8033
vn 0.4637 -0.3737 -0.8033
vn 0.4638 -0.3737 -0.8033
vn 0.6558 -0.3737 -0.6559
vn 0.4638 0.3737 -0.8032
vn 0.9207 -0.3710 -0.1212
vn 0.9207 0.3710 -0.1212
vn -0.7011 0.7071 -0.0923
vn -0.8959 0.3738 -0.2401
vn -0.6801 0.7101 -0.1822
vn -0.4638 -0.3738 -0.8033
vn -0.1822 -0.7101 -0.6801
vn -0.3520 -0.7101 -0.6097
vn -0.2401 -0.3738 -0.8959
vn -0.0000 0.7101 -0.7041
vn -0.2401 0.3738 -0.8959
vn -0.1822 0.7101 -0.6801
vn -0.0000 0.3738 -0.9275
vn 0.4638 0.3738 -0.8033
vn 0.1822 0.7101 -0.6801
vn 0.3520 0.7101 -0.6097
vn 0.2401 0.3738 -0.8959
vn -0.6559 -0.3738 -0.6559
vn -0.4978 -0.7101 -0.4978
vn -0.0000 -0.7101 -0.7041
vn 0.2401 -0.3738 -0.8959
vn 0.1822 -0.7101 -0.6801
vn -0.0000 -0.3738 -0.9275
vn 0.4638 -0.3738 -0.8033
vn 0.3520 -0.7101 -0.6097
vn 0.4978 -0.7101 -0.4978
vn 0.8033 -0.3738 -0.4638
vn 0.6097 -0.7101 -0.3520
vn 0.4979 -0.7101 -0.4978
vn 0.6559 -0.3738 -0.6559
vn 0.8959 -0.3738 -0.2401
vn 0.6801 -0.7101 -0.1822
vn 0.8959 0.3738 -0.2401
vn 0.6097 0.7101 -0.3520
vn 0.6801 0.7101 -0.1822
vn 0.8033 0.3738 -0.4638
vn 0.7011 -0.7071 -0.0923
vn -0.3520 0.7101 -0.6097
vn -0.6559 0.3738 -0.6559
vn -0.4978 0.7101 -0.4978
vn -0.4638 0.3738 -0.8033
vn -0.8033 0.3738 -0.4638
vn -0.6097 0.7101 -0.3520
vn -0.4979 0.7101 -0.4978
vn 0.4978 0.7101 -0.4978
vn 0.4979 0.7101 -0.4978
vn 0.6559 0.3738 -0.6559
vn -0.8959 -0.3738 -0.2401
vn -0.7011 -0.7071 -0.0923
vn -0.6801 -0.7101 -0.1822
vn 0.7011 0.7071 -0.0923
vn -0.8033 -0.3738 -0.4638
vn -0.6097 -0.7101 -0.3520
vn -0.4979 -0.7101 -0.4978
vn -0.0000 1.0000 -0.0000
vn 0.9659 -0.0000 0.2588
vn 0.9914 -0.0000 0.1305
vn 0.8660 -0.0000 0.5000
vn 0.7071 -0.0000 0.7071
vn 0.5000 -0.0000 0.8660
vn 0.2588 -0.0000 0.9659
vn -0.0000 -0.0000 1.0000
vn -0.2588 -0.0000 0.9659
vn -0.5000 -0.0000 0.8660
vn -0.7071 -0.0000 0.7071
vn -0.8660 -0.0000 0.5000
vn -0.9659 -0.0000 0.2588
vn -0.9914 -0.0000 0.1305
vn -0.0000 -0.0000 -0.0000
vt 0.593750 0.071543
vt 0.593750 0.025000
vt 0.593750 0.066322
vt 0.593750 0.104827
vt 0.593750 0.114914
vt 0.593750 0.137893
vt 0.593750 0.152157
vt 0.593750 0.163265
vt 0.593750 0.180735
vt 0.593750 0.179215
vt 0.593750 0.184655
vt 0.593750 0.198700
vt 0.593750 0.204827
vt 0.593750 0.125000
vt 0.593750 0.166421
vt 0.593750 0.218185
vt 0.593750 0.225000
vt 0.593750 0.076764
vt 0.593750 0.198205
vt 0.718750 0.025000
vt 0.718750 0.225000
vt 0.718750 0.173236
vt 0.718750 0.125000
vt 0.718750 0.083579
vt 0.718750 0.051795
vt 0.718750 0.031815
s 0
usemtl colormap.060
f 3/1/1 2/2/1 1/2/1
f 2/2/1 3/1/1 4/3/1
f 4/3/1 3/1/1 5/4/1
f 5/4/1 3/1/1 6/5/1
f 5/4/1 6/5/1 7/6/1
f 7/6/1 6/5/1 8/7/1
f 7/6/1 8/7/1 9/8/1
f 9/8/1 8/7/1 10/9/1
f 9/8/1 10/9/1 11/10/1
f 11/10/1 10/9/1 12/11/1
f 12/11/1 10/9/1 13/12/1
f 14/12/1 12/11/1 13/12/1
f 14/12/1 13/12/1 15/13/1
f 16/9/1 12/11/1 14/12/1
f 16/9/1 17/10/1 12/11/1
f 16/9/1 18/8/1 17/10/1
f 19/7/1 18/8/1 16/9/1
f 19/7/1 20/6/1 18/8/1
f 21/5/1 20/6/1 19/7/1
f 21/5/1 22/4/1 20/6/1
f 23/1/1 22/4/1 21/5/1
f 23/1/1 24/3/1 22/4/1
f 25/2/1 24/3/1 23/1/1
f 24/3/1 25/2/1 26/2/1
f 29/14/2 28/15/3 27/14/4
f 28/15/3 29/14/5 30/15/6
f 33/16/7 32/17/8 31/17/9
f 32/17/8 33/16/7 34/16/10
f 37/2/11 36/18/12 35/2/13
f 36/18/12 37/2/11 38/18/14
f 38/18/14 27/14/15 36/18/12
f 27/14/15 38/18/16 29/14/2
f 28/15/3 40/19/17 39/19/18
f 40/19/19 28/15/3 30/15/20
f 39/19/21 34/16/10 33/16/7
f 34/16/22 39/19/21 40/19/17
f 43/15/23 42/14/24 41/15/25
f 42/14/26 43/15/23 44/14/27
f 44/14/28 45/18/29 42/14/26
f 45/18/30 44/14/28 46/18/31
f 31/17/9 48/16/32 47/16/33
f 48/16/32 31/17/9 32/17/8
f 47/16/34 50/19/35 49/19/36
f 50/19/35 47/16/33 48/16/32
f 49/19/37 43/15/23 41/15/38
f 43/15/23 49/19/36 50/19/39
f 46/18/31 51/2/40 45/18/30
f 51/2/40 46/18/31 52/2/41
f 53/2/42 38/18/43 37/2/11
f 38/18/43 53/2/42 54/1/44
f 39/19/45 13/12/46 10/9/47
f 13/12/46 39/19/45 33/16/48
f 56/13/49 34/16/50 55/12/51
f 34/16/50 56/13/49 32/17/52
f 50/19/53 58/12/54 57/9/55
f 58/12/54 50/19/53 48/16/56
f 28/15/57 10/9/47 8/7/58
f 10/9/47 28/15/57 39/19/45
f 15/13/59 47/16/60 14/12/61
f 47/16/60 15/13/59 31/17/62
f 14/12/61 49/19/63 16/9/64
f 49/19/63 14/12/61 47/16/60
f 19/7/65 42/14/66 21/5/67
f 42/14/66 19/7/68 41/15/69
f 21/5/67 45/18/70 23/1/71
f 45/18/70 21/5/67 42/14/66
f 46/18/72 60/5/73 59/1/74
f 60/5/73 46/18/72 44/14/75
f 16/9/64 41/15/69 19/7/65
f 41/15/69 16/9/64 49/19/63
f 25/2/76 45/18/70 51/2/40
f 45/18/70 25/2/76 23/1/71
f 62/9/77 30/15/78 61/7/79
f 30/15/78 62/9/77 40/19/80
f 55/12/51 40/19/80 62/9/77
f 40/19/80 55/12/51 34/16/50
f 48/16/56 56/13/49 58/12/54
f 56/13/49 48/16/56 32/17/52
f 61/7/79 29/14/81 63/5/82
f 29/14/81 61/7/83 30/15/78
f 44/14/75 64/7/84 60/5/73
f 64/7/85 44/14/75 43/15/86
f 63/5/82 38/18/43 54/1/44
f 38/18/43 63/5/82 29/14/81
f 43/15/86 57/9/55 64/7/84
f 57/9/55 43/15/86 50/19/53
f 36/18/87 1/2/88 35/2/13
f 1/2/88 36/18/87 3/1/89
f 46/18/72 65/2/90 52/2/41
f 65/2/90 46/18/72 59/1/74
f 27/14/91 8/7/58 6/5/92
f 8/7/93 27/14/91 28/15/57
f 33/16/48 15/13/59 13/12/46
f 15/13/59 33/16/48 31/17/62
f 36/18/87 6/5/92 3/1/89
f 6/5/92 36/18/87 27/14/91
f 59/1/94 66/2/94 65/2/94
f 66/2/94 59/1/94 67/3/94
f 67/3/94 59/1/94 68/4/94
f 68/4/94 59/1/94 60/5/94
f 68/4/94 60/5/94 69/6/94
f 69/6/94 60/5/94 64/7/94
f 69/6/94 64/7/94 70/8/94
f 70/8/94 64/7/94 57/9/94
f 70/8/94 57/9/94 71/10/94
f 71/10/94 57/9/94 72/11/94
f 72/11/94 57/9/94 58/12/94
f 72/11/94 58/12/94 55/12/94
f 55/12/94 58/12/94 56/13/94
f 62/9/94 72/11/94 55/12/94
f 62/9/94 73/10/94 72/11/94
f 62/9/94 74/8/94 73/10/94
f 61/7/94 74/8/94 62/9/94
f 61/7/94 75/6/94 74/8/94
f 63/5/94 75/6/94 61/7/94
f 63/5/94 76/4/94 75/6/94
f 54/1/94 76/4/94 63/5/94
f 54/1/94 77/3/94 76/4/94
f 54/1/94 78/2/94 77/3/94
f 78/2/94 54/1/94 53/2/94
f 79/3/95 2/2/96 4/3/95
f 2/2/96 79/3/95 80/2/96
f 81/4/97 4/3/95 5/4/97
f 4/3/95 81/4/97 79/3/95
f 82/6/98 5/4/97 7/6/98
f 5/4/97 82/6/98 81/4/97
f 82/6/98 9/8/99 83/8/99
f 9/8/99 82/6/98 7/6/98
f 83/8/99 11/10/100 84/10/100
f 11/10/100 83/8/99 9/8/99
f 84/10/100 12/11/101 85/11/101
f 12/11/101 84/10/100 11/10/100
f 85/11/101 17/10/102 86/10/102
f 17/10/102 85/11/101 12/11/101
f 86/10/102 18/8/103 87/8/103
f 18/8/103 86/10/102 17/10/102
f 87/8/103 20/6/104 88/6/104
f 20/6/104 87/8/103 18/8/103
f 89/4/105 20/6/104 22/4/105
f 20/6/104 89/4/105 88/6/104
f 90/3/106 22/4/105 24/3/106
f 22/4/105 90/3/106 89/4/105
f 91/2/107 24/3/106 26/2/107
f 24/3/106 91/2/107 90/3/106
f 77/3/95 93/2/96 92/3/95
f 93/2/96 77/3/95 78/2/96
f 74/8/99 94/10/100 73/10/100
f 94/10/100 74/8/99 95/8/99
f 97/4/105 69/6/104 96/6/104
f 69/6/104 97/4/105 68/4/105
f 99/2/107 67/3/106 98/3/106
f 67/3/106 99/2/107 66/2/107
f 70/8/103 96/6/104 69/6/104
f 96/6/104 70/8/103 100/8/103
f 75/6/98 102/4/97 101/6/98
f 102/4/97 75/6/98 76/4/97
f 75/6/98 95/8/99 74/8/99
f 95/8/99 75/6/98 101/6/98
f 98/3/106 68/4/105 97/4/105
f 68/4/105 98/3/106 67/3/106
f 71/10/102 100/8/103 70/8/103
f 100/8/103 71/10/102 103/10/102
f 72/11/101 103/10/102 71/10/102
f 103/10/102 72/11/101 104/11/101
f 76/4/97 92/3/95 102/4/97
f 92/3/95 76/4/97 77/3/95
f 73/10/100 104/11/101 72/11/101
f 104/11/101 73/10/100 94/10/100
f 53/20/101 93/20/101 78/20/101
f 93/20/101 53/20/101 80/20/101
f 80/20/101 53/20/101 2/20/101
f 91/20/101 93/20/101 80/20/101
f 2/20/101 53/20/101 1/20/101
f 1/20/101 53/20/101 37/20/101
f 1/20/101 37/20/101 35/20/101
f 93/20/101 91/20/101 99/20/101
f 26/20/108 99/20/108 91/20/108
f 26/20/101 66/20/101 99/20/101
f 25/20/101 66/20/101 26/20/101
f 25/20/101 65/20/101 66/20/101
f 51/20/101 65/20/101 25/20/101
f 65/20/101 51/20/101 52/20/101
f 106/21/1 90/22/1 105/21/1
f 90/22/1 106/21/1 79/22/1
f 90/22/1 79/22/1 81/23/1
f 90/22/1 81/23/1 89/23/1
f 89/23/1 81/23/1 88/24/1
f 88/24/1 81/23/1 82/24/1
f 88/24/1 82/24/1 87/25/1
f 87/25/1 82/24/1 83/25/1
f 87/25/1 83/25/1 84/26/1
f 87/25/1 84/26/1 86/26/1
f 86/26/1 84/26/1 107/20/1
f 98/22/94 109/21/94 108/21/94
f 109/21/94 98/22/94 92/22/94
f 92/22/94 98/22/94 97/23/94
f 92/22/94 97/23/94 102/23/94
f 102/23/94 97/23/94 96/24/94
f 102/23/94 96/24/94 101/24/94
f 101/24/94 96/24/94 100/25/94
f 101/24/94 100/25/94 95/25/94
f 95/25/94 100/25/94 103/26/94
f 95/25/94 103/26/94 94/26/94
f 94/26/94 103/26/94 110/20/94
f 3/1/1 2/2/1 1/2/1
f 2/2/1 3/1/1 4/3/1
f 4/3/1 3/1/1 5/4/1
f 5/4/1 3/1/1 6/5/1
f 5/4/1 6/5/1 7/6/1
f 7/6/1 6/5/1 8/7/1
f 7/6/1 8/7/1 9/8/1
f 9/8/1 8/7/1 10/9/1
f 9/8/1 10/9/1 11/10/1
f 11/10/1 10/9/1 12/11/1
f 12/11/1 10/9/1 13/12/1
f 14/12/1 12/11/1 13/12/1
f 14/12/1 13/12/1 15/13/1
f 16/9/1 12/11/1 14/12/1
f 16/9/1 17/10/1 12/11/1
f 16/9/1 18/8/1 17/10/1
f 19/7/1 18/8/1 16/9/1
f 19/7/1 20/6/1 18/8/1
f 21/5/1 20/6/1 19/7/1
f 21/5/1 22/4/1 20/6/1
f 23/1/1 22/4/1 21/5/1
f 23/1/1 24/3/1 22/4/1
f 25/2/1 24/3/1 23/1/1
f 24/3/1 25/2/1 26/2/1
f 29/14/2 28/15/3 27/14/4
f 28/15/3 29/14/5 30/15/6
f 33/16/7 32/17/8 31/17/9
f 32/17/8 33/16/7 34/16/10
f 37/2/11 36/18/12 35/2/13
f 36/18/12 37/2/11 38/18/14
f 38/18/14 27/14/15 36/18/12
f 27/14/15 38/18/16 29/14/2
f 28/15/3 40/19/17 39/19/18
f 40/19/19 28/15/3 30/15/20
f 39/19/21 34/16/10 33/16/7
f 34/16/22 39/19/21 40/19/17
f 43/15/23 42/14/24 41/15/25
f 42/14/26 43/15/23 44/14/27
f 44/14/28 45/18/29 42/14/26
f 45/18/30 44/14/28 46/18/31
f 31/17/9 48/16/32 47/16/33
f 48/16/32 31/17/9 32/17/8
f 47/16/34 50/19/35 49/19/36
f 50/19/35 47/16/33 48/16/32
f 49/19/37 43/15/23 41/15/38
f 43/15/23 49/19/36 50/19/39
f 46/18/31 51/2/40 45/18/30
f 51/2/40 46/18/31 52/2/41
f 53/2/42 38/18/43 37/2/11
f 38/18/43 53/2/42 54/1/44
f 39/19/45 13/12/46 10/9/47
f 13/12/46 39/19/45 33/16/48
f 56/13/49 34/16/50 55/12/51
f 34/16/50 56/13/49 32/17/52
f 50/19/53 58/12/54 57/9/55
f 58/12/54 50/19/53 48/16/56
f 28/15/57 10/9/47 8/7/58
f 10/9/47 28/15/57 39/19/45
f 15/13/59 47/16/60 14/12/61
f 47/16/60 15/13/59 31/17/62
f 14/12/61 49/19/63 16/9/64
f 49/19/63 14/12/61 47/16/60
f 19/7/65 42/14/66 21/5/67
f 42/14/66 19/7/68 41/15/69
f 21/5/67 45/18/70 23/1/71
f 45/18/70 21/5/67 42/14/66
f 46/18/72 60/5/73 59/1/74
f 60/5/73 46/18/72 44/14/75
f 16/9/64 41/15/69 19/7/65
f 41/15/69 16/9/64 49/19/63
f 25/2/76 45/18/70 51/2/40
f 45/18/70 25/2/76 23/1/71
f 62/9/77 30/15/78 61/7/79
f 30/15/78 62/9/77 40/19/80
f 55/12/51 40/19/80 62/9/77
f 40/19/80 55/12/51 34/16/50
f 48/16/56 56/13/49 58/12/54
f 56/13/49 48/16/56 32/17/52
f 61/7/79 29/14/81 63/5/82
f 29/14/81 61/7/83 30/15/78
f 44/14/75 64/7/84 60/5/73
f 64/7/85 44/14/75 43/15/86
f 63/5/82 38/18/43 54/1/44
f 38/18/43 63/5/82 29/14/81
f 43/15/86 57/9/55 64/7/84
f 57/9/55 43/15/86 50/19/53
f 36/18/87 1/2/88 35/2/13
f 1/2/88 36/18/87 3/1/89
f 46/18/72 65/2/90 52/2/41
f 65/2/90 46/18/72 59/1/74
f 27/14/91 8/7/58 6/5/92
f 8/7/93 27/14/91 28/15/57
f 33/16/48 15/13/59 13/12/46
f 15/13/59 33/16/48 31/17/62
f 36/18/87 6/5/92 3/1/89
f 6/5/92 36/18/87 27/14/91
f 59/1/94 66/2/94 65/2/94
f 66/2/94 59/1/94 67/3/94
f 67/3/94 59/1/94 68/4/94
f 68/4/94 59/1/94 60/5/94
f 68/4/94 60/5/94 69/6/94
f 69/6/94 60/5/94 64/7/94
f 69/6/94 64/7/94 70/8/94
f 70/8/94 64/7/94 57/9/94
f 70/8/94 57/9/94 71/10/94
f 71/10/94 57/9/94 72/11/94
f 72/11/94 57/9/94 58/12/94
f 72/11/94 58/12/94 55/12/94
f 55/12/94 58/12/94 56/13/94
f 62/9/94 72/11/94 55/12/94
f 62/9/94 73/10/94 72/11/94
f 62/9/94 74/8/94 73/10/94
f 61/7/94 74/8/94 62/9/94
f 61/7/94 75/6/94 74/8/94
f 63/5/94 75/6/94 61/7/94
f 63/5/94 76/4/94 75/6/94
f 54/1/94 76/4/94 63/5/94
f 54/1/94 77/3/94 76/4/94
f 54/1/94 78/2/94 77/3/94
f 78/2/94 54/1/94 53/2/94
f 79/3/95 2/2/96 4/3/95
f 2/2/96 79/3/95 80/2/96
f 81/4/97 4/3/95 5/4/97
f 4/3/95 81/4/97 79/3/95
f 82/6/98 5/4/97 7/6/98
f 5/4/97 82/6/98 81/4/97
f 82/6/98 9/8/99 83/8/99
f 9/8/99 82/6/98 7/6/98
f 83/8/99 11/10/100 84/10/100
f 11/10/100 83/8/99 9/8/99
f 84/10/100 12/11/101 85/11/101
f 12/11/101 84/10/100 11/10/100
f 85/11/101 17/10/102 86/10/102
f 17/10/102 85/11/101 12/11/101
f 86/10/102 18/8/103 87/8/103
f 18/8/103 86/10/102 17/10/102
f 87/8/103 20/6/104 88/6/104
f 20/6/104 87/8/103 18/8/103
f 89/4/105 20/6/104 22/4/105
f 20/6/104 89/4/105 88/6/104
f 90/3/106 22/4/105 24/3/106
f 22/4/105 90/3/106 89/4/105
f 91/2/107 24/3/106 26/2/107
f 24/3/106 91/2/107 90/3/106
f 77/3/95 93/2/96 92/3/95
f 93/2/96 77/3/95 78/2/96
f 74/8/99 94/10/100 73/10/100
f 94/10/100 74/8/99 95/8/99
f 97/4/105 69/6/104 96/6/104
f 69/6/104 97/4/105 68/4/105
f 99/2/107 67/3/106 98/3/106
f 67/3/106 99/2/107 66/2/107
f 70/8/103 96/6/104 69/6/104
f 96/6/104 70/8/103 100/8/103
f 75/6/98 102/4/97 101/6/98
f 102/4/97 75/6/98 76/4/97
f 75/6/98 95/8/99 74/8/99
f 95/8/99 75/6/98 101/6/98
f 98/3/106 68/4/105 97/4/105
f 68/4/105 98/3/106 67/3/106
f 71/10/102 100/8/103 70/8/103
f 100/8/103 71/10/102 103/10/102
f 72/11/101 103/10/102 71/10/102
f 103/10/102 72/11/101 104/11/101
f 76/4/97 92/3/95 102/4/97
f 92/3/95 76/4/97 77/3/95
f 73/10/100 104/11/101 72/11/101
f 104/11/101 73/10/100 94/10/100
f 53/20/101 93/20/101 78/20/101
f 93/20/101 53/20/101 80/20/101
f 80/20/101 53/20/101 2/20/101
f 91/20/101 93/20/101 80/20/101
f 2/20/101 53/20/101 1/20/101
f 1/20/101 53/20/101 37/20/101
f 1/20/101 37/20/101 35/20/101
f 93/20/101 91/20/101 99/20/101
f 26/20/108 99/20/108 91/20/108
f 26/20/101 66/20/101 99/20/101
f 25/20/101 66/20/101 26/20/101
f 25/20/101 65/20/101 66/20/101
f 51/20/101 65/20/101 25/20/101
f 65/20/101 51/20/101 52/20/101
f 106/21/1 90/22/1 105/21/1
f 90/22/1 106/21/1 79/22/1
f 90/22/1 79/22/1 81/23/1
f 90/22/1 81/23/1 89/23/1
f 89/23/1 81/23/1 88/24/1
f 88/24/1 81/23/1 82/24/1
f 88/24/1 82/24/1 87/25/1
f 87/25/1 82/24/1 83/25/1
f 87/25/1 83/25/1 84/26/1
f 87/25/1 84/26/1 86/26/1
f 86/26/1 84/26/1 107/20/1
f 98/22/94 109/21/94 108/21/94
f 109/21/94 98/22/94 92/22/94
f 92/22/94 98/22/94 97/23/94
f 92/22/94 97/23/94 102/23/94
f 102/23/94 97/23/94 96/24/94
f 102/23/94 96/24/94 101/24/94
f 101/24/94 96/24/94 100/25/94
f 101/24/94 100/25/94 95/25/94
f 95/25/94 100/25/94 103/26/94
f 95/25/94 103/26/94 94/26/94
f 94/26/94 103/26/94 110/20/94
