# Blender 4.0.2
# www.blender.org
mtllib block-snow-overhang-low.mtl
o block-snow-overhang-low
v 0.500000 -0.226250 -0.500000
v 0.500000 0.226250 -0.500000
v 0.419820 -0.419820 -0.500000
v 0.419820 0.419820 -0.500000
v 0.226250 0.500000 -0.500000
v 0.226250 -0.500000 -0.500000
v -0.226250 -0.500000 -0.500000
v -0.226250 0.500000 -0.500000
v -0.419820 -0.419820 -0.500000
v -0.419820 0.419820 -0.500000
v -0.500000 0.226250 -0.500000
v -0.500000 -0.226250 -0.500000
v 0.541062 -0.253625 -0.375000
v 0.500000 -0.226250 -0.250000
v 0.541062 0.253625 -0.375000
v 0.500000 0.226250 -0.250000
v -0.226250 -0.500000 -0.250000
v 0.226250 -0.500000 -0.250000
v -0.253625 -0.541062 -0.375000
v 0.253625 -0.541062 -0.375000
v -0.456874 -0.456874 -0.375000
v -0.541062 -0.253625 -0.375000
v -0.419820 -0.419820 -0.250000
v -0.500000 -0.226250 -0.250000
v 0.419820 0.419820 -0.250000
v 0.226250 0.500000 -0.250000
v 0.456874 0.456874 -0.375000
v 0.253625 0.541062 -0.375000
v 0.419820 -0.419820 -0.250000
v 0.456874 -0.456874 -0.375000
v -0.541062 0.253625 -0.375000
v -0.500000 0.226250 -0.250000
v -0.226250 0.500000 -0.250000
v -0.419820 0.419820 -0.250000
v -0.253625 0.541062 -0.375000
v -0.456874 0.456874 -0.375000
v -0.128323 0.541062 -0.237645
v -0.194540 0.541062 -0.256477
v -0.062106 0.541062 -0.256477
v -0.015709 0.541062 -0.307337
v -0.240936 0.541062 -0.307337
v -0.003021 0.541062 -0.375000
v -0.253625 0.541062 -0.375000
v 0.541062 -0.122281 -0.375000
v 0.541062 -0.103248 -0.273505
v 0.541062 0.253625 -0.375000
v 0.541062 -0.033653 -0.197216
v 0.541062 0.065672 -0.168968
v 0.541062 0.164997 -0.197216
v 0.541062 0.234592 -0.273505
v -0.541062 0.122281 -0.375000
v -0.541062 -0.234592 -0.273505
v -0.541062 -0.164997 -0.197216
v -0.541062 -0.065672 -0.168968
v -0.541062 0.033654 -0.197216
v -0.541062 0.103248 -0.273505
v 0.128323 -0.541062 -0.237645
v 0.194540 -0.541062 -0.256477
v 0.062106 -0.541062 -0.256477
v 0.015709 -0.541062 -0.307337
v 0.240936 -0.541062 -0.307337
v 0.003021 -0.541062 -0.375000
v 0.226250 -0.500000 -0.000000
v 0.419820 -0.419820 -0.000000
v 0.226250 -0.500000 -0.250000
v 0.419820 -0.419820 -0.250000
v -0.419820 -0.419820 -0.000000
v -0.419820 -0.419820 -0.250000
v -0.500000 -0.226250 -0.000000
v -0.500000 -0.226250 -0.250000
v 0.419820 0.419820 0.000000
v 0.226250 0.500000 0.000000
v 0.419820 0.419820 -0.250000
v 0.226250 0.500000 -0.250000
v -0.226250 0.500000 0.000000
v -0.226250 0.500000 -0.250000
v 0.500000 0.226250 0.000000
v 0.500000 -0.226250 -0.000000
v -0.226250 -0.500000 -0.000000
v -0.419820 0.419820 0.000000
v -0.500000 0.226250 0.000000
v -0.226250 -0.500000 -0.250000
v -0.419820 0.419820 -0.250000
v 0.500000 0.226250 -0.250000
v -0.500000 0.226250 -0.250000
v 0.500000 -0.226250 -0.250000
vn -0.0000 -0.0000 -1.0000
vn 0.9774 0.2112 -0.0000
vn 0.9255 -0.1662 0.3404
vn 0.9774 -0.2112 -0.0000
vn 0.9255 0.1662 0.3404
vn -0.2112 -0.9774 -0.0000
vn 0.1662 -0.9255 0.3404
vn -0.1662 -0.9255 0.3404
vn 0.2112 -0.9774 -0.0000
vn -0.6521 -0.6521 0.3866
vn -0.9774 -0.2112 -0.0000
vn -0.7071 -0.7071 -0.0000
vn -0.9255 -0.1662 0.3404
vn 0.7071 0.7071 -0.0000
vn 0.1662 0.9255 0.3404
vn 0.6521 0.6521 0.3866
vn 0.2112 0.9774 -0.0000
vn 0.6521 -0.6521 0.3866
vn 0.7071 -0.7071 -0.0000
vn -0.9774 0.2112 -0.0000
vn -0.9255 0.1662 0.3404
vn -0.2112 0.9774 -0.0000
vn -0.6521 0.6521 0.3866
vn -0.1662 0.9255 0.3404
vn -0.7071 0.7071 -0.0000
vn -0.9255 -0.1662 -0.3404
vn -0.9255 0.1662 -0.3404
vn -0.6521 0.6521 -0.3866
vn -0.1662 0.9255 -0.3404
vn 0.1662 0.9255 -0.3404
vn 0.9255 -0.1662 -0.3404
vn 0.9255 0.1662 -0.3404
vn 0.1662 -0.9255 -0.3404
vn 0.6521 -0.6521 -0.3866
vn -0.1662 -0.9255 -0.3404
vn -0.6521 -0.6521 -0.3866
vn 0.6521 0.6521 -0.3866
vn -0.0000 1.0000 -0.0000
vn 1.0000 -0.0000 -0.0000
vn -1.0000 -0.0000 -0.0000
vn -0.0000 -1.0000 -0.0000
vn 0.1951 -0.9808 -0.0000
vn -0.9808 -0.1951 -0.0000
vn 0.1951 0.9808 -0.0000
vn -0.1951 0.9808 -0.0000
vn -0.0000 -0.0000 1.0000
vn -0.1951 -0.9808 -0.0000
vn 0.9808 0.1951 -0.0000
vn -0.9808 0.1951 -0.0000
vn 0.9808 -0.1951 -0.0000
vt 0.593750 0.225000
vt 0.593750 0.125000
vt 0.593750 0.025000
vt 0.593750 0.081855
vt 0.593750 0.075000
vt 0.593750 0.100369
vt 0.593750 0.088054
vt 0.593750 0.060283
vt 0.593750 0.050000
vt 0.718750 0.025000
vt 0.718750 0.225000
s 0
usemtl colormap.016
f 3/1/1 2/1/1 1/1/1
f 2/1/1 3/1/1 4/1/1
f 4/1/1 3/1/1 5/1/1
f 5/1/1 3/1/1 6/1/1
f 5/1/1 6/1/1 7/1/1
f 5/1/1 7/1/1 8/1/1
f 8/1/1 7/1/1 9/1/1
f 8/1/1 9/1/1 10/1/1
f 10/1/1 9/1/1 11/1/1
f 11/1/1 9/1/1 12/1/1
f 15/2/2 14/3/3 13/2/4
f 14/3/3 15/2/2 16/3/5
f 19/2/6 18/3/7 17/3/8
f 18/3/7 19/2/6 20/2/9
f 23/3/10 22/2/11 21/2/12
f 22/2/11 23/3/10 24/3/13
f 27/2/14 26/3/15 25/3/16
f 26/3/15 27/2/14 28/2/17
f 20/2/9 29/3/18 18/3/7
f 29/3/18 20/2/9 30/2/19
f 24/3/13 31/2/20 22/2/11
f 31/2/20 24/3/13 32/3/21
f 35/2/22 34/3/23 33/3/24
f 34/3/23 35/2/22 36/2/25
f 28/2/17 33/3/24 26/3/15
f 33/3/24 28/2/17 35/2/22
f 21/2/12 17/3/8 23/3/10
f 17/3/8 21/2/12 19/2/6
f 34/3/23 31/2/20 32/3/21
f 31/2/20 34/3/23 36/2/25
f 13/2/4 29/3/18 30/2/19
f 29/3/18 13/2/4 14/3/3
f 15/2/2 25/3/16 16/3/5
f 25/3/16 15/2/2 27/2/14
f 31/2/20 12/1/26 22/2/11
f 12/1/26 31/2/20 11/1/27
f 31/2/20 10/1/28 11/1/27
f 10/1/28 31/2/20 36/2/25
f 8/1/29 36/2/25 35/2/22
f 36/2/25 8/1/29 10/1/28
f 28/2/17 8/1/29 35/2/22
f 8/1/29 28/2/17 5/1/30
f 1/1/31 15/2/2 13/2/4
f 15/2/2 1/1/31 2/1/32
f 6/1/33 30/2/19 20/2/9
f 30/2/19 6/1/33 3/1/34
f 19/2/6 6/1/33 20/2/9
f 6/1/33 19/2/6 7/1/35
f 3/1/34 13/2/4 30/2/19
f 13/2/4 3/1/34 1/1/31
f 9/1/36 19/2/6 21/2/12
f 19/2/6 9/1/36 7/1/35
f 22/2/11 9/1/36 21/2/12
f 9/1/36 22/2/11 12/1/26
f 4/1/37 28/2/17 27/2/14
f 28/2/17 4/1/37 5/1/30
f 4/1/37 15/2/2 2/1/32
f 15/2/2 4/1/37 27/2/14
f 39/4/38 38/4/38 37/5/38
f 38/4/38 39/4/38 40/6/38
f 38/4/38 40/6/38 41/6/38
f 41/6/38 40/6/38 42/2/38
f 41/6/38 42/2/38 43/2/38
f 46/2/39 45/7/39 44/2/39
f 45/7/39 46/2/39 47/8/39
f 47/8/39 46/2/39 48/9/39
f 48/9/39 46/2/39 49/8/39
f 49/8/39 46/2/39 50/7/39
f 52/7/40 51/2/40 22/2/40
f 51/2/40 52/7/40 53/8/40
f 51/2/40 53/8/40 54/9/40
f 51/2/40 54/9/40 55/8/40
f 51/2/40 55/8/40 56/7/40
f 59/4/41 58/4/41 57/5/41
f 58/4/41 59/4/41 60/6/41
f 58/4/41 60/6/41 61/6/41
f 61/6/41 60/6/41 62/2/41
f 61/6/41 62/2/41 20/2/41
f 65/10/42 64/11/19 63/11/42
f 64/11/19 65/10/42 66/10/19
f 69/11/43 68/10/12 67/11/12
f 68/10/12 69/11/43 70/10/43
f 73/10/14 72/11/44 71/11/14
f 72/11/44 73/10/14 74/10/44
f 72/11/44 76/10/45 75/11/45
f 76/10/45 72/11/44 74/10/44
f 71/11/46 78/11/46 77/11/46
f 78/11/46 71/11/46 64/11/46
f 64/11/46 71/11/46 72/11/46
f 64/11/46 72/11/46 63/11/46
f 63/11/46 72/11/46 75/11/46
f 63/11/46 75/11/46 79/11/46
f 79/11/46 75/11/46 80/11/46
f 79/11/46 80/11/46 67/11/46
f 67/11/46 80/11/46 81/11/46
f 67/11/46 81/11/46 69/11/46
f 79/11/47 65/10/42 63/11/42
f 65/10/42 79/11/47 82/10/47
f 76/10/45 80/11/25 75/11/45
f 80/11/25 76/10/45 83/10/25
f 73/10/14 77/11/48 84/10/48
f 77/11/48 73/10/14 71/11/14
f 81/11/49 70/10/43 69/11/43
f 70/10/43 81/11/49 85/10/49
f 80/11/25 85/10/49 81/11/49
f 85/10/49 80/11/25 83/10/25
f 84/10/48 78/11/50 86/10/50
f 78/11/50 84/10/48 77/11/48
f 68/10/12 79/11/47 67/11/12
f 79/11/47 68/10/12 82/10/47
f 86/10/50 64/11/19 66/10/19
f 64/11/19 86/10/50 78/11/50
f 3/1/1 2/1/1 1/1/1
f 2/1/1 3/1/1 4/1/1
f 4/1/1 3/1/1 5/1/1
f 5/1/1 3/1/1 6/1/1
f 5/1/1 6/1/1 7/1/1
f 5/1/1 7/1/1 8/1/1
f 8/1/1 7/1/1 9/1/1
f 8/1/1 9/1/1 10/1/1
f 10/1/1 9/1/1 11/1/1
f 11/1/1 9/1/1 12/1/1
f 15/2/2 14/3/3 13/2/4
f 14/3/3 15/2/2 16/3/5
f 19/2/6 18/3/7 17/3/8
f 18/3/7 19/2/6 20/2/9
f 23/3/10 22/2/11 21/2/12
f 22/2/11 23/3/10 24/3/13
f 27/2/14 26/3/15 25/3/16
f 26/3/15 27/2/14 28/2/17
f 20/2/9 29/3/18 18/3/7
f 29/3/18 20/2/9 30/2/19
f 24/3/13 31/2/20 22/2/11
f 31/2/20 24/3/13 32/3/21
f 35/2/22 34/3/23 33/3/24
f 34/3/23 35/2/22 36/2/25
f 28/2/17 33/3/24 26/3/15
f 33/3/24 28/2/17 35/2/22
f 21/2/12 17/3/8 23/3/10
f 17/3/8 21/2/12 19/2/6
f 34/3/23 31/2/20 32/3/21
f 31/2/20 34/3/23 36/2/25
f 13/2/4 29/3/18 30/2/19
f 29/3/18 13/2/4 14/3/3
f 15/2/2 25/3/16 16/3/5
f 25/3/16 15/2/2 27/2/14
f 31/2/20 12/1/26 22/2/11
f 12/1/26 31/2/20 11/1/27
f 31/2/20 10/1/28 11/1/27
f 10/1/28 31/2/20 36/2/25
f 8/1/29 36/2/25 35/2/22
f 36/2/25 8/1/29 10/1/28
f 28/2/17 8/1/29 35/2/22
f 8/1/29 28/2/17 5/1/30
f 1/1/31 15/2/2 13/2/4
f 15/2/2 1/1/31 2/1/32
f 6/1/33 30/2/19 20/2/9
f 30/2/19 6/1/33 3/1/34
f 19/2/6 6/1/33 20/2/9
f 6/1/33 19/2/6 7/1/35
f 3/1/34 13/2/4 30/2/19
f 13/2/4 3/1/34 1/1/31
f 9/1/36 19/2/6 21/2/12
f 19/2/6 9/1/36 7/1/35
f 22/2/11 9/1/36 21/2/12
f 9/1/36 22/2/11 12/1/26
f 4/1/37 28/2/17 27/2/14
f 28/2/17 4/1/37 5/1/30
f 4/1/37 15/2/2 2/1/32
f 15/2/2 4/1/37 27/2/14
f 39/4/38 38/4/38 37/5/38
f 38/4/38 39/4/38 40/6/38
f 38/4/38 40/6/38 41/6/38
f 41/6/38 40/6/38 42/2/38
f 41/6/38 42/2/38 43/2/38
f 46/2/39 45/7/39 44/2/39
f 45/7/39 46/2/39 47/8/39
f 47/8/39 46/2/39 48/9/39
f 48/9/39 46/2/39 49/8/39
f 49/8/39 46/2/39 50/7/39
f 52/7/40 51/2/40 22/2/40
f 51/2/40 52/7/40 53/8/40
f 51/2/40 53/8/40 54/9/40
f 51/2/40 54/9/40 55/8/40
f 51/2/40 55/8/40 56/7/40
f 59/4/41 58/4/41 57/5/41
f 58/4/41 59/4/41 60/6/41
f 58/4/41 60/6/41 61/6/41
f 61/6/41 60/6/41 62/2/41
f 61/6/41 62/2/41 20/2/41
f 65/10/42 64/11/19 63/11/42
f 64/11/19 65/10/42 66/10/19
f 69/11/43 68/10/12 67/11/12
f 68/10/12 69/11/43 70/10/43
f 73/10/14 72/11/44 71/11/14
f 72/11/44 73/10/14 74/10/44
f 72/11/44 76/10/45 75/11/45
f 76/10/45 72/11/44 74/10/44
f 71/11/46 78/11/46 77/11/46
f 78/11/46 71/11/46 64/11/46
f 64/11/46 71/11/46 72/11/46
f 64/11/46 72/11/46 63/11/46
f 63/11/46 72/11/46 75/11/46
f 63/11/46 75/11/46 79/11/46
f 79/11/46 75/11/46 80/11/46
f 79/11/46 80/11/46 67/11/46
f 67/11/46 80/11/46 81/11/46
f 67/11/46 81/11/46 69/11/46
f 79/11/47 65/10/42 63/11/42
f 65/10/42 79/11/47 82/10/47
f 76/10/45 80/11/25 75/11/45
f 80/11/25 76/10/45 83/10/25
f 73/10/14 77/11/48 84/10/48
f 77/11/48 73/10/14 71/11/14
f 81/11/49 70/10/43 69/11/43
f 70/10/43 81/11/49 85/10/49
f 80/11/25 85/10/49 81/11/49
f 85/10/49 80/11/25 83/10/25
f 84/10/48 78/11/50 86/10/50
f 78/11/50 84/10/48 77/11/48
f 68/10/12 79/11/47 67/11/12
f 79/11/47 68/10/12 82/10/47
f 86/10/50 64/11/19 66/10/19
f 64/11/19 86/10/50 78/11/50
