# Blender 4.0.2
# www.blender.org
mtllib block-snow-corner-overhang-low.mtl
o block-snow-corner-overhang-low
v -0.226093 -0.527218 -0.375000
v 0.271657 -0.527218 -0.375000
v -0.205539 -0.479289 -0.500000
v 0.246961 -0.479289 -0.500000
v -0.439021 -0.439021 -0.375000
v -0.399110 -0.399110 -0.500000
v 0.484584 -0.439021 -0.375000
v 0.527218 -0.336093 -0.375000
v 0.440531 -0.399110 -0.500000
v 0.479289 -0.305539 -0.500000
v -0.479289 0.246961 -0.250000
v -0.527218 0.271657 -0.375000
v -0.399110 0.440531 -0.250000
v -0.439021 0.484584 -0.375000
v -0.479289 0.246961 -0.500000
v -0.399110 0.440531 -0.500000
v -0.527218 -0.226093 -0.375000
v -0.479289 -0.205539 -0.500000
v -0.479289 -0.205539 -0.250000
v -0.399110 -0.399110 -0.250000
v -0.205539 -0.479289 -0.250000
v 0.440531 -0.399110 -0.250000
v 0.479289 -0.305539 -0.250000
v 0.444174 -0.129003 -0.500000
v -0.129003 0.444174 -0.500000
v -0.305539 0.479289 -0.500000
v 0.488591 -0.141903 -0.375000
v 0.444174 -0.129003 -0.250000
v 0.246961 -0.479289 -0.250000
v -0.141903 0.488591 -0.375000
v -0.336093 0.527218 -0.375000
v -0.129003 0.444174 -0.250000
v -0.305539 0.479289 -0.250000
v -0.009000 0.355689 -0.168968
v -0.079234 0.425922 -0.197216
v 0.061234 0.285455 -0.197216
v 0.110445 0.236244 -0.273505
v -0.128445 0.475133 -0.273505
v 0.123903 0.222786 -0.375000
v -0.141903 0.488591 -0.375000
v 0.399989 -0.053301 -0.237645
v 0.353167 -0.006479 -0.256477
v 0.446812 -0.100123 -0.256477
v 0.479619 -0.132931 -0.307337
v 0.320360 0.026329 -0.307337
v 0.488591 -0.141903 -0.375000
v 0.311388 0.035301 -0.375000
v -0.527218 -0.226093 -0.375000
v -0.527218 0.024511 -0.375000
v -0.527218 -0.213405 -0.307337
v -0.527218 -0.167008 -0.256477
v -0.527218 -0.100791 -0.237645
v -0.527218 -0.034574 -0.256477
v -0.527218 0.011822 -0.307337
v 0.146355 -0.527218 -0.237645
v 0.212572 -0.527218 -0.256477
v 0.080138 -0.527218 -0.256477
v 0.033741 -0.527218 -0.307337
v 0.258968 -0.527218 -0.307337
v 0.021053 -0.527218 -0.375000
v 0.271657 -0.527218 -0.375000
v -0.399110 -0.399110 0.000000
v -0.479289 -0.205539 0.000000
v -0.479289 -0.205539 -0.250000
v 0.440531 -0.399110 0.000000
v 0.479289 -0.305539 0.000000
v 0.444174 -0.129003 0.000000
v -0.129003 0.444174 0.000000
v 0.246961 -0.479289 0.000000
v -0.205539 -0.479289 0.000000
v -0.305539 0.479289 0.000000
v -0.399110 0.440531 0.000000
v -0.479289 0.246961 0.000000
v -0.479289 0.246961 -0.250000
v 0.246961 -0.479289 -0.250000
v -0.205539 -0.479289 -0.250000
v -0.399110 0.440531 -0.250000
v 0.444174 -0.129003 -0.250000
v -0.305539 0.479289 -0.250000
vn -0.1710 -0.9102 -0.3771
vn 0.2075 -0.9782 -0.0000
vn -0.2042 -0.9789 -0.0000
vn 0.1671 -0.9091 -0.3816
vn -0.6445 -0.6445 -0.4115
vn -0.7071 -0.7071 -0.0000
vn 0.6349 -0.6426 -0.4290
vn 0.9916 -0.1294 -0.0000
vn 0.7103 -0.7039 -0.0000
vn 0.6349 -0.6426 -0.4289
vn 0.9277 -0.0552 -0.3692
vn -0.6426 0.6349 0.4289
vn -0.9782 0.2075 -0.0000
vn -0.9091 0.1670 0.3816
vn -0.9782 0.2076 -0.0000
vn -0.6426 0.6348 0.4289
vn -0.7039 0.7103 -0.0000
vn -0.6426 0.6349 -0.4289
vn -0.9091 0.1671 -0.3816
vn -0.6426 0.6348 -0.4289
vn -0.9789 -0.2042 -0.0000
vn -0.9102 -0.1710 -0.3771
vn -0.9102 -0.1710 0.3771
vn -0.9091 0.1671 0.3816
vn -0.1710 -0.9102 0.3771
vn -0.3532 -0.8527 0.3850
vn 0.6349 -0.6426 0.4290
vn 0.6349 -0.6426 0.4289
vn 0.9277 -0.0552 0.3692
vn -0.0000 -0.0000 -1.0000
vn 0.9011 0.4337 -0.0000
vn 0.9277 -0.0553 0.3692
vn 0.8320 0.4981 0.2442
vn 0.1671 -0.9091 0.3816
vn 0.8320 0.4981 -0.2442
vn 0.4337 0.9011 -0.0000
vn 0.4981 0.8320 -0.2443
vn 0.4981 0.8320 -0.2442
vn -0.1294 0.9916 -0.0000
vn -0.0552 0.9277 -0.3692
vn 0.9277 -0.0553 -0.3692
vn -0.0552 0.9277 0.3692
vn 0.4981 0.8320 0.2442
vn -0.0553 0.9277 0.3692
vn 0.8320 0.4981 0.2443
vn -0.6426 0.6349 0.4290
vn 0.1670 -0.9091 0.3816
vn 0.6348 -0.6426 0.4289
vn 0.2076 -0.9782 -0.0000
vn 0.1670 -0.9091 -0.3816
vn -0.8527 -0.3532 0.3850
vn 0.7071 0.7071 -0.0000
vn -1.0000 -0.0000 -0.0000
vn -0.0000 -1.0000 -0.0000
vn -0.9808 -0.1951 -0.0000
vn 0.9952 -0.0980 -0.0000
vn 0.7071 -0.7071 -0.0000
vn -0.0000 -0.0000 1.0000
vn -0.9808 0.1951 -0.0000
vn 0.1951 -0.9808 -0.0000
vn -0.1951 -0.9808 -0.0000
vn -0.7071 0.7071 -0.0000
vn -0.7071 -0.7071 0.0001
vn 0.8819 0.4714 -0.0000
vn 0.4714 0.8819 -0.0000
vn -0.0980 0.9952 -0.0000
vn -0.7071 0.7071 -0.0001
vt 0.593750 0.225000
vt 0.593750 0.125000
vt 0.593750 0.025000
vt 0.593750 0.060283
vt 0.593750 0.050000
vt 0.593750 0.088054
vt 0.593750 0.081855
vt 0.593750 0.075000
vt 0.593750 0.100369
vt 0.718750 0.225000
vt 0.718750 0.025000
s 0
usemtl colormap.019
f 3/1/1 2/2/2 1/2/3
f 2/2/2 3/1/1 4/1/4
f 6/1/5 1/2/3 5/2/6
f 1/2/3 6/1/5 3/1/1
f 9/1/7 8/2/8 7/2/9
f 8/2/8 9/1/10 10/1/11
f 13/3/12 12/2/13 11/3/14
f 12/2/15 13/3/16 14/2/17
f 12/2/13 16/1/18 15/1/19
f 16/1/20 12/2/15 14/2/17
f 17/2/21 6/1/5 5/2/6
f 6/1/5 17/2/21 18/1/22
f 12/2/13 18/1/22 17/2/21
f 18/1/22 12/2/13 15/1/19
f 19/3/23 12/2/13 17/2/21
f 12/2/13 19/3/23 11/3/24
f 5/2/6 21/3/25 20/3/26
f 21/3/25 5/2/6 1/2/3
f 8/2/8 22/3/27 7/2/9
f 22/3/28 8/2/8 23/3/29
f 9/1/30 24/1/30 10/1/30
f 24/1/30 9/1/30 25/1/30
f 25/1/30 9/1/30 4/1/30
f 25/1/30 4/1/30 3/1/30
f 25/1/30 3/1/30 26/1/30
f 26/1/30 3/1/30 6/1/30
f 26/1/30 6/1/30 16/1/30
f 16/1/30 6/1/30 18/1/30
f 16/1/30 18/1/30 15/1/30
f 27/2/31 23/3/32 8/2/8
f 23/3/29 27/2/31 28/3/33
f 1/2/3 29/3/34 21/3/25
f 29/3/34 1/2/3 2/2/2
f 24/1/35 30/2/36 27/2/31
f 30/2/36 24/1/35 25/1/37
f 25/1/38 31/2/39 30/2/36
f 31/2/39 25/1/38 26/1/40
f 10/1/41 27/2/31 8/2/8
f 27/2/31 10/1/11 24/1/35
f 26/1/40 14/2/17 31/2/39
f 14/2/17 26/1/40 16/1/18
f 30/2/36 33/3/42 32/3/43
f 33/3/44 30/2/36 31/2/39
f 27/2/31 32/3/43 28/3/45
f 32/3/43 27/2/31 30/2/36
f 31/2/39 13/3/12 33/3/42
f 13/3/46 31/2/39 14/2/17
f 2/2/2 22/3/28 29/3/47
f 22/3/48 2/2/49 7/2/9
f 4/1/4 7/2/9 2/2/49
f 7/2/9 4/1/50 9/1/10
f 20/3/51 17/2/21 5/2/6
f 17/2/21 20/3/51 19/3/23
f 36/4/52 35/4/52 34/5/52
f 35/4/52 36/4/52 37/6/52
f 35/4/52 37/6/52 38/6/52
f 38/6/52 37/6/52 39/2/52
f 38/6/52 39/2/52 40/2/52
f 43/7/52 42/7/52 41/8/52
f 42/7/52 43/7/52 44/9/52
f 42/7/52 44/9/52 45/9/52
f 45/9/52 44/9/52 46/2/52
f 45/9/52 46/2/52 47/2/52
f 50/9/53 49/2/53 48/2/53
f 49/2/53 50/9/53 51/7/53
f 49/2/53 51/7/53 52/8/53
f 49/2/53 52/8/53 53/7/53
f 49/2/53 53/7/53 54/9/53
f 57/7/54 56/7/54 55/8/54
f 56/7/54 57/7/54 58/9/54
f 56/7/54 58/9/54 59/9/54
f 59/9/54 58/9/54 60/2/54
f 59/9/54 60/2/54 61/2/54
f 63/10/55 20/11/6 62/10/6
f 20/11/6 63/10/55 64/11/55
f 23/11/56 65/10/57 22/11/57
f 65/10/57 23/11/56 66/10/56
f 67/10/58 65/10/58 66/10/58
f 65/10/58 67/10/58 68/10/58
f 65/10/58 68/10/58 69/10/58
f 69/10/58 68/10/58 70/10/58
f 70/10/58 68/10/58 71/10/58
f 70/10/58 71/10/58 62/10/58
f 62/10/58 71/10/58 72/10/58
f 62/10/58 72/10/58 63/10/58
f 63/10/58 72/10/58 73/10/58
f 73/10/59 64/11/55 63/10/55
f 64/11/55 73/10/59 74/11/59
f 75/11/60 65/10/57 69/10/60
f 65/10/57 75/11/60 22/11/57
f 76/11/61 69/10/60 70/10/61
f 69/10/60 76/11/61 75/11/60
f 72/10/62 74/11/59 73/10/59
f 74/11/59 72/10/62 77/11/62
f 20/11/6 70/10/61 62/10/6
f 70/10/61 20/11/63 76/11/61
f 78/11/64 66/10/56 23/11/56
f 66/10/56 78/11/64 67/10/64
f 78/11/64 68/10/65 67/10/64
f 68/10/65 78/11/64 32/11/65
f 79/11/66 72/10/67 71/10/66
f 72/10/62 79/11/66 77/11/62
f 32/11/65 71/10/66 68/10/65
f 71/10/66 32/11/65 79/11/66
f 3/1/1 2/2/2 1/2/3
f 2/2/2 3/1/1 4/1/4
f 6/1/5 1/2/3 5/2/6
f 1/2/3 6/1/5 3/1/1
f 9/1/7 8/2/8 7/2/9
f 8/2/8 9/1/10 10/1/11
f 13/3/12 12/2/13 11/3/14
f 12/2/15 13/3/16 14/2/17
f 12/2/13 16/1/18 15/1/19
f 16/1/20 12/2/15 14/2/17
f 17/2/21 6/1/5 5/2/6
f 6/1/5 17/2/21 18/1/22
f 12/2/13 18/1/22 17/2/21
f 18/1/22 12/2/13 15/1/19
f 19/3/23 12/2/13 17/2/21
f 12/2/13 19/3/23 11/3/24
f 5/2/6 21/3/25 20/3/26
f 21/3/25 5/2/6 1/2/3
f 8/2/8 22/3/27 7/2/9
f 22/3/28 8/2/8 23/3/29
f 9/1/30 24/1/30 10/1/30
f 24/1/30 9/1/30 25/1/30
f 25/1/30 9/1/30 4/1/30
f 25/1/30 4/1/30 3/1/30
f 25/1/30 3/1/30 26/1/30
f 26/1/30 3/1/30 6/1/30
f 26/1/30 6/1/30 16/1/30
f 16/1/30 6/1/30 18/1/30
f 16/1/30 18/1/30 15/1/30
f 27/2/31 23/3/32 8/2/8
f 23/3/29 27/2/31 28/3/33
f 1/2/3 29/3/34 21/3/25
f 29/3/34 1/2/3 2/2/2
f 24/1/35 30/2/36 27/2/31
f 30/2/36 24/1/35 25/1/37
f 25/1/38 31/2/39 30/2/36
f 31/2/39 25/1/38 26/1/40
f 10/1/41 27/2/31 8/2/8
f 27/2/31 10/1/11 24/1/35
f 26/1/40 14/2/17 31/2/39
f 14/2/17 26/1/40 16/1/18
f 30/2/36 33/3/42 32/3/43
f 33/3/44 30/2/36 31/2/39
f 27/2/31 32/3/43 28/3/45
f 32/3/43 27/2/31 30/2/36
f 31/2/39 13/3/12 33/3/42
f 13/3/46 31/2/39 14/2/17
f 2/2/2 22/3/28 29/3/47
f 22/3/48 2/2/49 7/2/9
f 4/1/4 7/2/9 2/2/49
f 7/2/9 4/1/50 9/1/10
f 20/3/51 17/2/21 5/2/6
f 17/2/21 20/3/51 19/3/23
f 36/4/52 35/4/52 34/5/52
f 35/4/52 36/4/52 37/6/52
f 35/4/52 37/6/52 38/6/52
f 38/6/52 37/6/52 39/2/52
f 38/6/52 39/2/52 40/2/52
f 43/7/52 42/7/52 41/8/52
f 42/7/52 43/7/52 44/9/52
f 42/7/52 44/9/52 45/9/52
f 45/9/52 44/9/52 46/2/52
f 45/9/52 46/2/52 47/2/52
f 50/9/53 49/2/53 48/2/53
f 49/2/53 50/9/53 51/7/53
f 49/2/53 51/7/53 52/8/53
f 49/2/53 52/8/53 53/7/53
f 49/2/53 53/7/53 54/9/53
f 57/7/54 56/7/54 55/8/54
f 56/7/54 57/7/54 58/9/54
f 56/7/54 58/9/54 59/9/54
f 59/9/54 58/9/54 60/2/54
f 59/9/54 60/2/54 61/2/54
f 63/10/55 20/11/6 62/10/6
f 20/11/6 63/10/55 64/11/55
f 23/11/56 65/10/57 22/11/57
f 65/10/57 23/11/56 66/10/56
f 67/10/58 65/10/58 66/10/58
f 65/10/58 67/10/58 68/10/58
f 65/10/58 68/10/58 69/10/58
f 69/10/58 68/10/58 70/10/58
f 70/10/58 68/10/58 71/10/58
f 70/10/58 71/10/58 62/10/58
f 62/10/58 71/10/58 72/10/58
f 62/10/58 72/10/58 63/10/58
f 63/10/58 72/10/58 73/10/58
f 73/10/59 64/11/55 63/10/55
f 64/11/55 73/10/59 74/11/59
f 75/11/60 65/10/57 69/10/60
f 65/10/57 75/11/60 22/11/57
f 76/11/61 69/10/60 70/10/61
f 69/10/60 76/11/61 75/11/60
f 72/10/62 74/11/59 73/10/59
f 74/11/59 72/10/62 77/11/62
f 20/11/6 70/10/61 62/10/6
f 70/10/61 20/11/63 76/11/61
f 78/11/64 66/10/56 23/11/56
f 66/10/56 78/11/64 67/10/64
f 78/11/64 68/10/65 67/10/64
f 68/10/65 78/11/64 32/11/65
f 79/11/66 72/10/67 71/10/66
f 72/10/62 79/11/66 77/11/62
f 32/11/65 71/10/66 68/10/65
f 71/10/66 32/11/65 79/11/66
