# Blender 4.0.2
# www.blender.org
mtllib block-snow-overhang-large-slope-steep.mtl
o block-snow-overhang-large-slope-steep
v 1.000000 0.691451 -0.320128
v 0.919820 0.859088 -0.223343
v 1.000000 -0.566451 -1.046378
v 0.919820 -0.734088 -1.143163
v 0.726250 0.928525 -0.183253
v 0.726250 -0.803525 -1.183253
v -0.726250 0.928525 -0.183253
v -0.726250 -0.803525 -1.183253
v -0.919820 0.859088 -0.223343
v -0.919820 -0.734088 -1.143163
v -1.000000 0.691451 -0.320128
v -1.000000 -0.566451 -1.046378
v 1.041062 -0.652658 -0.951813
v 1.000000 -0.691451 -0.829872
v 1.041062 0.652658 -0.198188
v 1.000000 0.566451 -0.103622
v -0.726250 -0.928525 -0.966747
v 0.726250 -0.928525 -0.966747
v -0.753625 -0.901586 -1.095531
v 0.753625 -0.901586 -1.095531
v -0.956874 -0.828677 -1.053437
v -1.041062 -0.652658 -0.951813
v -0.919820 -0.859088 -0.926657
v -1.000000 -0.691451 -0.829872
v 0.919820 0.734088 -0.006837
v 0.726250 0.803525 0.033253
v 0.956874 0.828677 -0.096563
v 0.753625 0.901586 -0.054469
v 0.919820 -0.859088 -0.926657
v 0.956874 -0.828677 -1.053437
v -1.041062 0.652658 -0.198188
v -1.000000 0.566451 -0.103622
v -0.726250 0.803525 0.033253
v -0.919820 0.734088 -0.006837
v -0.753625 0.901586 -0.054469
v -0.956874 0.828677 -0.096563
v -0.503021 0.764232 0.183437
v -0.635455 0.783064 0.150819
v -0.370587 0.783064 0.150819
v -0.277794 0.833923 0.062728
v -0.728248 0.833923 0.062728
v -0.252417 0.901586 -0.054469
v -0.753625 0.901586 -0.054469
v -0.027115 0.832909 0.064484
v -0.093331 0.842325 0.048175
v 0.039102 0.842325 0.048175
v 0.085499 0.867755 0.004129
v -0.139728 0.867755 0.004129
v 0.098187 0.901586 -0.054469
v -0.152417 0.901586 -0.054469
v 0.559630 0.798570 0.123961
v 0.460305 0.812694 0.099497
v 0.658956 0.812694 0.099497
v 0.728550 0.850839 0.033428
v 0.390710 0.850839 0.033428
v 0.747583 0.901586 -0.054469
v 0.371677 0.901586 -0.054469
v -1.041062 -0.652658 -0.951813
v -1.041062 -0.218599 -0.701208
v -1.041062 -0.698344 -0.821927
v -1.041062 -0.668843 -0.687440
v -1.041062 -0.572984 -0.588605
v -1.041062 -0.439460 -0.555006
v -1.041062 -0.308240 -0.596701
v -1.041062 0.321882 -0.389161
v -1.041062 0.647426 -0.201208
v -1.041062 0.287617 -0.291748
v -1.041062 0.309744 -0.190882
v -1.041062 0.381638 -0.116756
v -1.041062 0.481780 -0.091557
v -1.041062 0.580195 -0.122828
v -1.041062 -0.131997 -0.651208
v -1.041062 0.085033 -0.525906
v -1.041062 -0.154840 -0.586266
v -1.041062 -0.140089 -0.519022
v -1.041062 -0.092159 -0.469604
v -1.041062 -0.025398 -0.452805
v -1.041062 0.040213 -0.473652
v 0.027115 -0.970264 -0.976578
v 0.093331 -0.960848 -0.992887
v -0.039102 -0.960848 -0.992887
v -0.085499 -0.935418 -1.036933
v 0.139728 -0.935418 -1.036933
v -0.098188 -0.901586 -1.095531
v 0.152417 -0.901586 -1.095531
v 0.503021 -1.038941 -0.857626
v 0.635455 -1.020109 -0.890244
v 0.370587 -1.020109 -0.890244
v 0.277794 -0.969250 -0.978335
v 0.728248 -0.969250 -0.978335
v 0.252417 -0.901586 -1.095531
v 0.753625 -0.901586 -1.095531
v -0.559630 -1.004603 -0.917102
v -0.460305 -0.990479 -0.941566
v -0.658956 -0.990479 -0.941566
v -0.728550 -0.952334 -1.007634
v -0.390710 -0.952334 -1.007634
v -0.747583 -0.901586 -1.095531
v -0.371677 -0.901586 -1.095531
v 1.041062 0.218599 -0.448792
v 1.041062 0.172913 -0.318907
v 1.041062 0.652658 -0.198187
v 1.041062 0.202415 -0.184419
v 1.041062 0.298274 -0.085584
v 1.041062 0.431797 -0.051985
v 1.041062 0.563018 -0.093680
v 1.041062 -0.647426 -0.948792
v 1.041062 -0.681691 -0.851378
v 1.041062 -0.321882 -0.760839
v 1.041062 -0.659564 -0.750512
v 1.041062 -0.587670 -0.676386
v 1.041062 -0.487528 -0.651187
v 1.041062 -0.389112 -0.682458
v 1.041062 -0.085033 -0.624094
v 1.041062 -0.107876 -0.559151
v 1.041062 0.131997 -0.498792
v 1.041062 -0.093125 -0.491907
v 1.041062 -0.045196 -0.442490
v 1.041062 0.021566 -0.425691
v 1.041062 0.087176 -0.446538
v -0.726250 -0.928525 0.000000
v 0.726250 -0.928525 0.000000
v -0.726250 -0.928525 -0.966747
v 0.726250 -0.928525 -0.966747
v -0.919820 -0.859088 0.000000
v -0.919820 -0.859088 -0.926657
v -1.000000 -0.691451 0.000000
v 0.919820 -0.859088 -0.926657
v 0.919820 -0.859088 0.000000
v 1.000000 -0.691451 0.000000
v 1.000000 0.566451 -0.103622
v 1.000000 0.566451 0.000000
v -1.000000 0.566451 0.000000
v -1.000000 0.566451 -0.103622
v 0.726250 0.740201 0.000000
v -0.726250 0.740201 0.000000
v 0.726250 0.740201 -0.103622
v -0.726250 0.740201 -0.103622
v -0.919820 0.660021 0.000000
v -0.919820 0.660021 -0.103622
v 0.919820 0.660021 0.000000
v 0.919820 0.660021 -0.103622
vn -0.0000 0.5000 -0.8660
vn 0.9774 0.1829 0.1056
vn 0.9255 -0.3142 0.2117
vn 0.9774 -0.1829 -0.1056
vn 0.9255 -0.0263 0.3779
vn -0.2112 -0.8465 -0.4887
vn 0.1662 -0.9717 -0.1679
vn -0.1662 -0.9717 -0.1679
vn 0.2112 -0.8465 -0.4887
vn -0.6521 -0.7581 0.0087
vn -0.9774 -0.1829 -0.1056
vn -0.7071 -0.6124 -0.3535
vn -0.6521 -0.7581 0.0088
vn -0.9255 -0.3142 0.2117
vn 0.7071 0.6124 0.3535
vn 0.1662 0.6313 0.7575
vn 0.6521 0.3714 0.6609
vn 0.2112 0.8465 0.4887
vn 0.6521 -0.7581 0.0087
vn 0.6521 -0.7581 0.0088
vn 0.7071 -0.6124 -0.3535
vn -0.9774 0.1829 0.1056
vn -0.9255 -0.0263 0.3779
vn -0.2112 0.8465 0.4887
vn -0.6521 0.3715 0.6609
vn -0.1662 0.6313 0.7576
vn -0.6521 0.3714 0.6609
vn -0.7071 0.6123 0.3536
vn -0.1662 0.6313 0.7575
vn -0.7071 0.6124 0.3536
vn 0.6521 0.3715 0.6609
vn 0.7071 0.6124 0.3536
vn -0.9255 0.0262 -0.3779
vn -0.9255 0.0263 -0.3779
vn -0.9255 0.3142 -0.2117
vn -0.6521 0.7581 -0.0088
vn -0.6521 0.7581 -0.0087
vn -0.7071 0.6124 0.3535
vn -0.1662 0.9717 0.1679
vn 0.1662 0.9717 0.1679
vn 0.9255 0.0262 -0.3779
vn 0.9255 0.0263 -0.3779
vn 0.9255 0.3142 -0.2117
vn 0.1662 -0.6313 -0.7575
vn 0.1662 -0.6313 -0.7576
vn 0.6521 -0.3714 -0.6609
vn -0.1662 -0.6313 -0.7576
vn 0.6521 -0.3715 -0.6609
vn 0.7071 -0.6124 -0.3536
vn -0.6521 -0.3715 -0.6609
vn -0.7071 -0.6123 -0.3536
vn -0.6521 -0.3714 -0.6609
vn 0.6521 0.7581 -0.0088
vn 0.6521 0.7580 -0.0087
vn 0.6521 0.7581 -0.0087
vn -0.0000 -0.5000 0.8660
vn -0.0000 0.8660 0.5000
vn -1.0000 -0.0000 -0.0000
vn -0.0000 -0.8660 -0.5000
vn 1.0000 -0.0000 -0.0000
vn -0.1601 -0.9871 -0.0000
vn 0.1713 -0.9852 -0.0001
vn -0.1713 -0.9852 -0.0000
vn 0.1713 -0.9852 -0.0000
vn 0.1601 -0.9871 -0.0000
vn -0.9752 -0.2212 -0.0000
vn -0.5955 -0.8033 -0.0000
vn -0.6702 -0.7421 -0.0000
vn -0.9564 -0.2921 -0.0000
vn 0.9564 -0.2921 -0.0000
vn 0.6702 -0.7421 -0.0000
vn 0.5955 -0.8033 -0.0000
vn 0.9752 -0.2212 -0.0001
vn -0.1714 -0.9852 -0.0000
vn -0.1602 -0.9871 -0.0000
vn 0.1602 -0.9871 -0.0000
vn 0.1714 -0.9852 -0.0000
vn 0.9549 0.2969 -0.0000
vn 0.9752 -0.2212 -0.0000
vn 0.9379 0.3469 -0.0000
vn -0.9379 0.3469 -0.0000
vn -0.9549 0.2969 -0.0000
vn 0.1951 0.9808 -0.0000
vn -0.1951 0.9808 -0.0000
vn -0.5871 0.8095 -0.0000
vn -0.5871 0.8095 0.0001
vn 0.5871 0.8095 -0.0000
vn 0.5871 0.8095 -0.0001
vn -0.0000 -0.0000 1.0000
vt 0.593750 0.225000
vt 0.593750 0.125000
vt 0.593750 0.025000
vt 0.593750 0.038711
vt 0.593750 0.075738
vt 0.593750 0.081855
vt 0.593750 0.075000
vt 0.593750 0.100369
vt 0.593750 0.060283
vt 0.593750 0.050000
vt 0.593750 0.088054
vt 0.718750 0.025000
vt 0.718750 0.225000
vt 0.718750 0.033294
vt 0.718750 0.053317
vt 0.718750 0.203563
s 0
usemtl colormap.004
f 3/1/1 2/1/1 1/1/1
f 2/1/1 3/1/1 4/1/1
f 2/1/1 4/1/1 5/1/1
f 5/1/1 4/1/1 6/1/1
f 5/1/1 6/1/1 7/1/1
f 7/1/1 6/1/1 8/1/1
f 7/1/1 8/1/1 9/1/1
f 9/1/1 8/1/1 10/1/1
f 9/1/1 10/1/1 11/1/1
f 11/1/1 10/1/1 12/1/1
f 15/2/2 14/3/3 13/2/4
f 14/3/3 15/2/2 16/3/5
f 19/2/6 18/3/7 17/3/8
f 18/3/7 19/2/6 20/2/9
f 23/3/10 22/2/11 21/2/12
f 22/2/11 23/3/13 24/3/14
f 27/2/15 26/3/16 25/3/17
f 26/3/16 27/2/15 28/2/18
f 20/2/9 29/3/19 18/3/7
f 29/3/20 20/2/9 30/2/21
f 24/3/14 31/2/22 22/2/11
f 31/2/22 24/3/14 32/3/23
f 35/2/24 34/3/25 33/3/26
f 34/3/27 35/2/24 36/2/28
f 26/3/16 35/2/24 33/3/29
f 35/2/24 26/3/16 28/2/18
f 23/3/10 19/2/6 17/3/8
f 19/2/6 23/3/13 21/2/12
f 34/3/27 31/2/22 32/3/23
f 31/2/22 34/3/25 36/2/30
f 13/2/4 29/3/19 30/2/21
f 29/3/20 13/2/4 14/3/3
f 15/2/2 25/3/17 16/3/5
f 25/3/31 15/2/2 27/2/32
f 31/2/22 12/1/33 22/2/11
f 12/1/34 31/2/22 11/1/35
f 31/2/22 9/1/36 11/1/35
f 9/1/37 31/2/22 36/2/38
f 7/1/39 36/2/30 35/2/24
f 36/2/30 7/1/39 9/1/36
f 28/2/18 7/1/39 35/2/24
f 7/1/39 28/2/18 5/1/40
f 3/1/41 15/2/2 13/2/4
f 15/2/2 3/1/42 1/1/43
f 6/1/44 30/2/21 20/2/9
f 30/2/21 6/1/45 4/1/46
f 19/2/6 6/1/44 20/2/9
f 6/1/44 19/2/6 8/1/47
f 4/1/48 13/2/4 30/2/49
f 13/2/4 4/1/46 3/1/42
f 10/1/50 19/2/6 21/2/51
f 19/2/6 10/1/52 8/1/47
f 22/2/11 10/1/50 21/2/12
f 10/1/52 22/2/11 12/1/34
f 2/1/53 28/2/18 27/2/15
f 28/2/18 2/1/54 5/1/40
f 2/1/53 15/2/2 1/1/43
f 15/2/2 2/1/55 27/2/15
f 25/3/56 14/3/56 16/3/56
f 14/3/56 25/3/56 29/3/56
f 29/3/56 25/3/56 26/3/56
f 29/3/56 26/3/56 18/3/56
f 18/3/56 26/3/56 33/3/56
f 18/3/56 33/3/56 17/3/56
f 17/3/56 33/3/56 34/3/56
f 17/3/56 34/3/56 23/3/56
f 23/3/56 34/3/56 32/3/56
f 23/3/56 32/3/56 24/3/56
f 39/4/57 38/4/57 37/3/57
f 38/4/57 39/4/57 40/5/57
f 38/4/57 40/5/57 41/5/57
f 41/5/57 40/5/57 42/2/57
f 41/5/57 42/2/57 43/2/57
f 46/6/57 45/6/57 44/7/57
f 45/6/57 46/6/57 47/8/57
f 45/6/57 47/8/57 48/8/57
f 48/8/57 47/8/57 49/2/57
f 48/8/57 49/2/57 50/2/57
f 53/9/57 52/9/57 51/10/57
f 52/9/57 53/9/57 54/11/57
f 52/9/57 54/11/57 55/11/57
f 55/11/57 54/11/57 56/2/57
f 55/11/57 56/2/57 57/2/57
f 60/5/58 59/2/58 58/2/58
f 59/2/58 60/5/58 61/4/58
f 59/2/58 61/4/58 62/3/58
f 59/2/58 62/3/58 63/4/58
f 59/2/58 63/4/58 64/5/58
f 67/11/58 66/2/58 65/2/58
f 66/2/58 67/11/58 68/9/58
f 66/2/58 68/9/58 69/10/58
f 66/2/58 69/10/58 70/9/58
f 66/2/58 70/9/58 71/11/58
f 74/8/58 73/2/58 72/2/58
f 73/2/58 74/8/58 75/6/58
f 73/2/58 75/6/58 76/7/58
f 73/2/58 76/7/58 77/6/58
f 73/2/58 77/6/58 78/8/58
f 81/6/59 80/6/59 79/7/59
f 80/6/59 81/6/59 82/8/59
f 80/6/59 82/8/59 83/8/59
f 83/8/59 82/8/59 84/2/59
f 83/8/59 84/2/59 85/2/59
f 88/4/59 87/4/59 86/3/59
f 87/4/59 88/4/59 89/5/59
f 87/4/59 89/5/59 90/5/59
f 90/5/59 89/5/59 91/2/59
f 90/5/59 91/2/59 92/2/59
f 95/9/59 94/9/59 93/10/59
f 94/9/59 95/9/59 96/11/59
f 94/9/59 96/11/59 97/11/59
f 97/11/59 96/11/59 98/2/59
f 97/11/59 98/2/59 99/2/59
f 102/2/60 101/5/60 100/2/60
f 101/5/60 102/2/60 103/4/60
f 103/4/60 102/2/60 104/3/60
f 104/3/60 102/2/60 105/4/60
f 105/4/60 102/2/60 106/5/60
f 109/2/60 108/11/60 107/2/60
f 108/11/60 109/2/60 110/9/60
f 110/9/60 109/2/60 111/10/60
f 111/10/60 109/2/60 112/9/60
f 112/9/60 109/2/60 113/11/60
f 116/2/60 115/8/60 114/2/60
f 115/8/60 116/2/60 117/6/60
f 117/6/60 116/2/60 118/7/60
f 118/7/60 116/2/60 119/6/60
f 119/6/60 116/2/60 120/8/60
f 123/12/61 122/13/62 121/13/63
f 122/13/64 123/12/61 124/12/65
f 127/13/66 126/14/67 125/13/68
f 126/14/67 127/13/66 24/15/69
f 14/15/70 129/13/71 128/14/72
f 129/13/71 14/15/70 130/13/73
f 126/14/67 121/13/74 125/13/68
f 121/13/74 126/14/67 123/12/75
f 124/12/76 129/13/71 122/13/77
f 129/13/71 124/12/76 128/14/72
f 131/16/78 130/13/79 14/15/70
f 130/13/79 131/16/78 132/13/80
f 133/13/81 24/15/69 127/13/66
f 24/15/69 133/13/81 134/16/82
f 137/16/83 136/13/84 135/13/83
f 136/13/84 137/16/83 138/16/84
f 139/13/85 134/16/82 133/13/81
f 134/16/82 139/13/85 140/16/86
f 142/16/87 135/13/83 141/13/87
f 135/13/83 142/16/87 137/16/83
f 138/16/84 139/13/85 136/13/84
f 139/13/85 138/16/84 140/16/85
f 142/16/87 132/13/80 131/16/78
f 132/13/80 142/16/87 141/13/88
f 141/13/89 130/13/89 132/13/89
f 130/13/89 141/13/89 129/13/89
f 129/13/89 141/13/89 135/13/89
f 129/13/89 135/13/89 122/13/89
f 122/13/89 135/13/89 136/13/89
f 122/13/89 136/13/89 121/13/89
f 121/13/89 136/13/89 139/13/89
f 121/13/89 139/13/89 125/13/89
f 125/13/89 139/13/89 133/13/89
f 125/13/89 133/13/89 127/13/89
f 3/1/1 2/1/1 1/1/1
f 2/1/1 3/1/1 4/1/1
f 2/1/1 4/1/1 5/1/1
f 5/1/1 4/1/1 6/1/1
f 5/1/1 6/1/1 7/1/1
f 7/1/1 6/1/1 8/1/1
f 7/1/1 8/1/1 9/1/1
f 9/1/1 8/1/1 10/1/1
f 9/1/1 10/1/1 11/1/1
f 11/1/1 10/1/1 12/1/1
f 15/2/2 14/3/3 13/2/4
f 14/3/3 15/2/2 16/3/5
f 19/2/6 18/3/7 17/3/8
f 18/3/7 19/2/6 20/2/9
f 23/3/10 22/2/11 21/2/12
f 22/2/11 23/3/13 24/3/14
f 27/2/15 26/3/16 25/3/17
f 26/3/16 27/2/15 28/2/18
f 20/2/9 29/3/19 18/3/7
f 29/3/20 20/2/9 30/2/21
f 24/3/14 31/2/22 22/2/11
f 31/2/22 24/3/14 32/3/23
f 35/2/24 34/3/25 33/3/26
f 34/3/27 35/2/24 36/2/28
f 26/3/16 35/2/24 33/3/29
f 35/2/24 26/3/16 28/2/18
f 23/3/10 19/2/6 17/3/8
f 19/2/6 23/3/13 21/2/12
f 34/3/27 31/2/22 32/3/23
f 31/2/22 34/3/25 36/2/30
f 13/2/4 29/3/19 30/2/21
f 29/3/20 13/2/4 14/3/3
f 15/2/2 25/3/17 16/3/5
f 25/3/31 15/2/2 27/2/32
f 31/2/22 12/1/33 22/2/11
f 12/1/34 31/2/22 11/1/35
f 31/2/22 9/1/36 11/1/35
f 9/1/37 31/2/22 36/2/38
f 7/1/39 36/2/30 35/2/24
f 36/2/30 7/1/39 9/1/36
f 28/2/18 7/1/39 35/2/24
f 7/1/39 28/2/18 5/1/40
f 3/1/41 15/2/2 13/2/4
f 15/2/2 3/1/42 1/1/43
f 6/1/44 30/2/21 20/2/9
f 30/2/21 6/1/45 4/1/46
f 19/2/6 6/1/44 20/2/9
f 6/1/44 19/2/6 8/1/47
f 4/1/48 13/2/4 30/2/49
f 13/2/4 4/1/46 3/1/42
f 10/1/50 19/2/6 21/2/51
f 19/2/6 10/1/52 8/1/47
f 22/2/11 10/1/50 21/2/12
f 10/1/52 22/2/11 12/1/34
f 2/1/53 28/2/18 27/2/15
f 28/2/18 2/1/54 5/1/40
f 2/1/53 15/2/2 1/1/43
f 15/2/2 2/1/55 27/2/15
f 25/3/56 14/3/56 16/3/56
f 14/3/56 25/3/56 29/3/56
f 29/3/56 25/3/56 26/3/56
f 29/3/56 26/3/56 18/3/56
f 18/3/56 26/3/56 33/3/56
f 18/3/56 33/3/56 17/3/56
f 17/3/56 33/3/56 34/3/56
f 17/3/56 34/3/56 23/3/56
f 23/3/56 34/3/56 32/3/56
f 23/3/56 32/3/56 24/3/56
f 39/4/57 38/4/57 37/3/57
f 38/4/57 39/4/57 40/5/57
f 38/4/57 40/5/57 41/5/57
f 41/5/57 40/5/57 42/2/57
f 41/5/57 42/2/57 43/2/57
f 46/6/57 45/6/57 44/7/57
f 45/6/57 46/6/57 47/8/57
f 45/6/57 47/8/57 48/8/57
f 48/8/57 47/8/57 49/2/57
f 48/8/57 49/2/57 50/2/57
f 53/9/57 52/9/57 51/10/57
f 52/9/57 53/9/57 54/11/57
f 52/9/57 54/11/57 55/11/57
f 55/11/57 54/11/57 56/2/57
f 55/11/57 56/2/57 57/2/57
f 60/5/58 59/2/58 58/2/58
f 59/2/58 60/5/58 61/4/58
f 59/2/58 61/4/58 62/3/58
f 59/2/58 62/3/58 63/4/58
f 59/2/58 63/4/58 64/5/58
f 67/11/58 66/2/58 65/2/58
f 66/2/58 67/11/58 68/9/58
f 66/2/58 68/9/58 69/10/58
f 66/2/58 69/10/58 70/9/58
f 66/2/58 70/9/58 71/11/58
f 74/8/58 73/2/58 72/2/58
f 73/2/58 74/8/58 75/6/58
f 73/2/58 75/6/58 76/7/58
f 73/2/58 76/7/58 77/6/58
f 73/2/58 77/6/58 78/8/58
f 81/6/59 80/6/59 79/7/59
f 80/6/59 81/6/59 82/8/59
f 80/6/59 82/8/59 83/8/59
f 83/8/59 82/8/59 84/2/59
f 83/8/59 84/2/59 85/2/59
f 88/4/59 87/4/59 86/3/59
f 87/4/59 88/4/59 89/5/59
f 87/4/59 89/5/59 90/5/59
f 90/5/59 89/5/59 91/2/59
f 90/5/59 91/2/59 92/2/59
f 95/9/59 94/9/59 93/10/59
f 94/9/59 95/9/59 96/11/59
f 94/9/59 96/11/59 97/11/59
f 97/11/59 96/11/59 98/2/59
f 97/11/59 98/2/59 99/2/59
f 102/2/60 101/5/60 100/2/60
f 101/5/60 102/2/60 103/4/60
f 103/4/60 102/2/60 104/3/60
f 104/3/60 102/2/60 105/4/60
f 105/4/60 102/2/60 106/5/60
f 109/2/60 108/11/60 107/2/60
f 108/11/60 109/2/60 110/9/60
f 110/9/60 109/2/60 111/10/60
f 111/10/60 109/2/60 112/9/60
f 112/9/60 109/2/60 113/11/60
f 116/2/60 115/8/60 114/2/60
f 115/8/60 116/2/60 117/6/60
f 117/6/60 116/2/60 118/7/60
f 118/7/60 116/2/60 119/6/60
f 119/6/60 116/2/60 120/8/60
f 123/12/61 122/13/62 121/13/63
f 122/13/64 123/12/61 124/12/65
f 127/13/66 126/14/67 125/13/68
f 126/14/67 127/13/66 24/15/69
f 14/15/70 129/13/71 128/14/72
f 129/13/71 14/15/70 130/13/73
f 126/14/67 121/13/74 125/13/68
f 121/13/74 126/14/67 123/12/75
f 124/12/76 129/13/71 122/13/77
f 129/13/71 124/12/76 128/14/72
f 131/16/78 130/13/79 14/15/70
f 130/13/79 131/16/78 132/13/80
f 133/13/81 24/15/69 127/13/66
f 24/15/69 133/13/81 134/16/82
f 137/16/83 136/13/84 135/13/83
f 136/13/84 137/16/83 138/16/84
f 139/13/85 134/16/82 133/13/81
f 134/16/82 139/13/85 140/16/86
f 142/16/87 135/13/83 141/13/87
f 135/13/83 142/16/87 137/16/83
f 138/16/84 139/13/85 136/13/84
f 139/13/85 138/16/84 140/16/85
f 142/16/87 132/13/80 131/16/78
f 132/13/80 142/16/87 141/13/88
f 141/13/89 130/13/89 132/13/89
f 130/13/89 141/13/89 129/13/89
f 129/13/89 141/13/89 135/13/89
f 129/13/89 135/13/89 122/13/89
f 122/13/89 135/13/89 136/13/89
f 122/13/89 136/13/89 121/13/89
f 121/13/89 136/13/89 139/13/89
f 121/13/89 139/13/89 125/13/89
f 125/13/89 139/13/89 133/13/89
f 125/13/89 133/13/89 127/13/89
