# Blender 4.0.2
# www.blender.org
mtllib block-snow-overhang-low-narrow.mtl
o block-snow-overhang-low-narrow
v 0.350000 -0.076250 -0.500000
v 0.350000 0.076250 -0.500000
v 0.269821 -0.269821 -0.500000
v 0.269821 0.269821 -0.500000
v 0.076250 0.350000 -0.500000
v 0.076250 -0.350000 -0.500000
v -0.076250 -0.350000 -0.500000
v -0.076250 0.350000 -0.500000
v -0.269821 -0.269821 -0.500000
v -0.269821 0.269821 -0.500000
v -0.350000 0.076250 -0.500000
v -0.350000 -0.076250 -0.500000
v 0.391062 -0.103625 -0.375000
v 0.350000 -0.076250 -0.250000
v 0.391062 0.103625 -0.375000
v 0.350000 0.076250 -0.250000
v -0.076250 -0.350000 -0.250000
v 0.076250 -0.350000 -0.250000
v -0.103625 -0.391062 -0.375000
v 0.103625 -0.391062 -0.375000
v -0.306874 -0.306874 -0.375000
v -0.391062 -0.103625 -0.375000
v -0.269821 -0.269821 -0.250000
v -0.350000 -0.076250 -0.250000
v 0.269821 0.269821 -0.250000
v 0.076250 0.350000 -0.250000
v 0.306874 0.306874 -0.375000
v 0.103625 0.391062 -0.375000
v 0.269821 -0.269821 -0.250000
v 0.306874 -0.306874 -0.375000
v -0.391062 0.103625 -0.375000
v -0.350000 0.076250 -0.250000
v -0.076250 0.350000 -0.250000
v -0.269821 0.269821 -0.250000
v -0.103625 0.391062 -0.375000
v -0.306874 0.306874 -0.375000
v 0.391062 -0.103625 -0.375000
v 0.391063 -0.076980 -0.259433
v 0.391062 0.103625 -0.375000
v 0.391063 0.000000 -0.210174
v 0.391062 0.076980 -0.259433
v 0.000000 0.391062 -0.210174
v -0.076980 0.391062 -0.259433
v 0.076980 0.391062 -0.259433
v -0.103625 0.391062 -0.375000
v 0.103625 0.391062 -0.375000
v 0.000000 -0.391062 -0.210174
v 0.076980 -0.391062 -0.259433
v -0.076980 -0.391062 -0.259433
v 0.103625 -0.391062 -0.375000
v -0.103625 -0.391062 -0.375000
v -0.391062 -0.103625 -0.375000
v -0.391062 0.103625 -0.375000
v -0.391062 -0.076980 -0.259433
v -0.391062 0.000000 -0.210174
v -0.391062 0.076980 -0.259433
v 0.076250 -0.350000 0.000000
v 0.269821 -0.269821 0.000000
v 0.076250 -0.350000 -0.259433
v 0.269821 -0.269821 -0.259433
v -0.269821 -0.269821 0.000000
v -0.269821 -0.269821 -0.259433
v -0.350000 -0.076250 0.000000
v -0.350000 -0.076250 -0.259433
v 0.269821 0.269821 0.000000
v 0.076250 0.350000 0.000000
v 0.269821 0.269821 -0.259433
v 0.076250 0.350000 -0.259433
v -0.076250 0.350000 0.000000
v -0.076250 0.350000 -0.259433
v 0.350000 0.076250 0.000000
v 0.350000 -0.076250 0.000000
v -0.076250 -0.350000 0.000000
v -0.269821 0.269821 0.000000
v -0.350000 0.076250 0.000000
v -0.076250 -0.350000 -0.259433
v -0.269821 0.269821 -0.259433
v 0.350000 0.076250 -0.259433
v -0.350000 0.076250 -0.259433
v 0.350000 -0.076250 -0.259433
vn -0.0000 -0.0000 -1.0000
vn 0.9774 0.2112 -0.0000
vn 0.9255 -0.1662 0.3404
vn 0.9774 -0.2112 -0.0000
vn 0.9775 0.2112 -0.0000
vn 0.9255 0.1662 0.3404
vn -0.2112 -0.9775 -0.0000
vn 0.1662 -0.9255 0.3404
vn -0.1662 -0.9255 0.3404
vn -0.2112 -0.9774 -0.0000
vn 0.2112 -0.9774 -0.0000
vn -0.6521 -0.6521 0.3866
vn -0.9774 -0.2112 -0.0000
vn -0.7071 -0.7071 -0.0000
vn -0.9255 -0.1662 0.3404
vn 0.7071 0.7071 -0.0000
vn 0.1662 0.9255 0.3404
vn 0.6521 0.6521 0.3866
vn 0.2112 0.9774 -0.0000
vn 0.6521 -0.6521 0.3866
vn 0.7071 -0.7071 -0.0000
vn -0.9774 0.2112 -0.0000
vn -0.9775 0.2112 -0.0000
vn -0.9255 0.1662 0.3404
vn -0.2112 0.9774 -0.0000
vn -0.6521 0.6521 0.3866
vn -0.1662 0.9255 0.3404
vn -0.7071 0.7071 -0.0000
vn 0.2112 0.9775 -0.0000
vn -0.9255 -0.1662 -0.3404
vn -0.9255 0.1662 -0.3404
vn -0.6521 0.6521 -0.3866
vn -0.1662 0.9255 -0.3404
vn 0.1662 0.9255 -0.3404
vn 0.9255 -0.1662 -0.3404
vn 0.9255 0.1662 -0.3404
vn 0.1662 -0.9255 -0.3404
vn 0.6521 -0.6521 -0.3866
vn -0.1662 -0.9255 -0.3404
vn 0.2112 -0.9775 -0.0000
vn -0.6521 -0.6521 -0.3866
vn 0.6521 0.6521 -0.3866
vn 1.0000 -0.0000 -0.0000
vn -0.0000 1.0000 -0.0000
vn -0.0000 -1.0000 -0.0000
vn -1.0000 -0.0000 -0.0000
vn 0.1951 -0.9808 -0.0000
vn 0.7071 -0.7071 -0.0001
vn -0.9808 -0.1951 -0.0000
vn -0.9808 -0.1951 0.0001
vn 0.1951 0.9808 -0.0000
vn 0.7071 0.7071 0.0001
vn -0.1951 0.9808 -0.0000
vn -0.0000 -0.0000 1.0000
vn -0.1951 -0.9808 -0.0000
vn -0.7071 0.7071 -0.0001
vn 0.9808 0.1951 -0.0000
vn 0.9808 0.1951 0.0001
vn -0.9808 0.1951 -0.0000
vn -0.9808 0.1951 -0.0001
vn 0.9808 -0.1951 -0.0000
vn -0.7071 -0.7071 0.0001
vn 0.9808 -0.1951 -0.0001
vt 0.593750 0.225000
vt 0.593750 0.125000
vt 0.593750 0.025000
vt 0.593750 0.082931
vt 0.593750 0.065000
vt 0.718750 0.025000
vt 0.718750 0.225000
s 0
usemtl colormap.021
f 3/1/1 2/1/1 1/1/1
f 2/1/1 3/1/1 4/1/1
f 4/1/1 3/1/1 5/1/1
f 5/1/1 3/1/1 6/1/1
f 5/1/1 6/1/1 7/1/1
f 5/1/1 7/1/1 8/1/1
f 8/1/1 7/1/1 9/1/1
f 8/1/1 9/1/1 10/1/1
f 10/1/1 9/1/1 11/1/1
f 11/1/1 9/1/1 12/1/1
f 15/2/2 14/3/3 13/2/4
f 14/3/3 15/2/5 16/3/6
f 19/2/7 18/3/8 17/3/9
f 18/3/8 19/2/10 20/2/11
f 23/3/12 22/2/13 21/2/14
f 22/2/13 23/3/12 24/3/15
f 27/2/16 26/3/17 25/3/18
f 26/3/17 27/2/16 28/2/19
f 20/2/11 29/3/20 18/3/8
f 29/3/20 20/2/11 30/2/21
f 24/3/15 31/2/22 22/2/13
f 31/2/23 24/3/15 32/3/24
f 35/2/25 34/3/26 33/3/27
f 34/3/26 35/2/25 36/2/28
f 28/2/29 33/3/27 26/3/17
f 33/3/27 28/2/19 35/2/25
f 21/2/14 17/3/9 23/3/12
f 17/3/9 21/2/14 19/2/10
f 34/3/26 31/2/22 32/3/24
f 31/2/22 34/3/26 36/2/28
f 13/2/4 29/3/20 30/2/21
f 29/3/20 13/2/4 14/3/3
f 15/2/2 25/3/18 16/3/6
f 25/3/18 15/2/2 27/2/16
f 31/2/22 12/1/30 22/2/13
f 12/1/30 31/2/23 11/1/31
f 31/2/22 10/1/32 11/1/31
f 10/1/32 31/2/22 36/2/28
f 8/1/33 36/2/28 35/2/25
f 36/2/28 8/1/33 10/1/32
f 28/2/19 8/1/33 35/2/25
f 8/1/33 28/2/29 5/1/34
f 1/1/35 15/2/2 13/2/4
f 15/2/5 1/1/35 2/1/36
f 6/1/37 30/2/21 20/2/11
f 30/2/21 6/1/37 3/1/38
f 7/1/39 20/2/11 19/2/10
f 20/2/40 7/1/39 6/1/37
f 3/1/38 13/2/4 30/2/21
f 13/2/4 3/1/38 1/1/35
f 9/1/41 19/2/10 21/2/14
f 19/2/10 9/1/41 7/1/39
f 22/2/13 9/1/41 21/2/14
f 9/1/41 22/2/13 12/1/30
f 4/1/42 28/2/19 27/2/16
f 28/2/19 4/1/42 5/1/34
f 4/1/42 15/2/2 2/1/36
f 15/2/2 4/1/42 27/2/16
f 39/2/43 38/4/43 37/2/43
f 38/4/43 39/2/43 40/5/43
f 40/5/43 39/2/43 41/4/43
f 44/4/44 43/4/44 42/5/44
f 43/4/44 44/4/44 45/2/44
f 45/2/44 44/4/44 46/2/44
f 49/4/45 48/4/45 47/5/45
f 48/4/45 49/4/45 50/2/45
f 50/2/45 49/4/45 51/2/45
f 54/4/46 53/2/46 52/2/46
f 53/2/46 54/4/46 55/5/46
f 53/2/46 55/5/46 56/4/46
f 59/6/47 58/7/48 57/7/47
f 58/7/21 59/6/47 60/6/21
f 63/7/49 62/6/14 61/7/14
f 62/6/14 63/7/49 64/6/50
f 67/6/16 66/7/51 65/7/16
f 66/7/51 67/6/52 68/6/51
f 68/6/51 69/7/53 66/7/51
f 69/7/53 68/6/51 70/6/53
f 65/7/54 72/7/54 71/7/54
f 72/7/54 65/7/54 58/7/54
f 58/7/54 65/7/54 66/7/54
f 58/7/54 66/7/54 57/7/54
f 57/7/54 66/7/54 69/7/54
f 57/7/54 69/7/54 73/7/54
f 73/7/54 69/7/54 74/7/54
f 73/7/54 74/7/54 61/7/54
f 61/7/54 74/7/54 75/7/54
f 61/7/54 75/7/54 63/7/54
f 76/6/55 57/7/47 73/7/55
f 57/7/47 76/6/55 59/6/47
f 70/6/53 74/7/56 69/7/53
f 74/7/28 70/6/53 77/6/28
f 67/6/16 71/7/57 78/6/58
f 71/7/57 67/6/16 65/7/16
f 75/7/59 64/6/49 63/7/49
f 64/6/49 75/7/59 79/6/59
f 74/7/28 79/6/59 75/7/60
f 79/6/59 74/7/28 77/6/28
f 78/6/57 72/7/61 80/6/61
f 72/7/61 78/6/57 71/7/57
f 62/6/14 73/7/55 61/7/14
f 73/7/55 62/6/62 76/6/55
f 80/6/61 58/7/21 60/6/21
f 58/7/21 80/6/61 72/7/63
f 3/1/1 2/1/1 1/1/1
f 2/1/1 3/1/1 4/1/1
f 4/1/1 3/1/1 5/1/1
f 5/1/1 3/1/1 6/1/1
f 5/1/1 6/1/1 7/1/1
f 5/1/1 7/1/1 8/1/1
f 8/1/1 7/1/1 9/1/1
f 8/1/1 9/1/1 10/1/1
f 10/1/1 9/1/1 11/1/1
f 11/1/1 9/1/1 12/1/1
f 15/2/2 14/3/3 13/2/4
f 14/3/3 15/2/5 16/3/6
f 19/2/7 18/3/8 17/3/9
f 18/3/8 19/2/10 20/2/11
f 23/3/12 22/2/13 21/2/14
f 22/2/13 23/3/12 24/3/15
f 27/2/16 26/3/17 25/3/18
f 26/3/17 27/2/16 28/2/19
f 20/2/11 29/3/20 18/3/8
f 29/3/20 20/2/11 30/2/21
f 24/3/15 31/2/22 22/2/13
f 31/2/23 24/3/15 32/3/24
f 35/2/25 34/3/26 33/3/27
f 34/3/26 35/2/25 36/2/28
f 28/2/29 33/3/27 26/3/17
f 33/3/27 28/2/19 35/2/25
f 21/2/14 17/3/9 23/3/12
f 17/3/9 21/2/14 19/2/10
f 34/3/26 31/2/22 32/3/24
f 31/2/22 34/3/26 36/2/28
f 13/2/4 29/3/20 30/2/21
f 29/3/20 13/2/4 14/3/3
f 15/2/2 25/3/18 16/3/6
f 25/3/18 15/2/2 27/2/16
f 31/2/22 12/1/30 22/2/13
f 12/1/30 31/2/23 11/1/31
f 31/2/22 10/1/32 11/1/31
f 10/1/32 31/2/22 36/2/28
f 8/1/33 36/2/28 35/2/25
f 36/2/28 8/1/33 10/1/32
f 28/2/19 8/1/33 35/2/25
f 8/1/33 28/2/29 5/1/34
f 1/1/35 15/2/2 13/2/4
f 15/2/5 1/1/35 2/1/36
f 6/1/37 30/2/21 20/2/11
f 30/2/21 6/1/37 3/1/38
f 7/1/39 20/2/11 19/2/10
f 20/2/40 7/1/39 6/1/37
f 3/1/38 13/2/4 30/2/21
f 13/2/4 3/1/38 1/1/35
f 9/1/41 19/2/10 21/2/14
f 19/2/10 9/1/41 7/1/39
f 22/2/13 9/1/41 21/2/14
f 9/1/41 22/2/13 12/1/30
f 4/1/42 28/2/19 27/2/16
f 28/2/19 4/1/42 5/1/34
f 4/1/42 15/2/2 2/1/36
f 15/2/2 4/1/42 27/2/16
f 39/2/43 38/4/43 37/2/43
f 38/4/43 39/2/43 40/5/43
f 40/5/43 39/2/43 41/4/43
f 44/4/44 43/4/44 42/5/44
f 43/4/44 44/4/44 45/2/44
f 45/2/44 44/4/44 46/2/44
f 49/4/45 48/4/45 47/5/45
f 48/4/45 49/4/45 50/2/45
f 50/2/45 49/4/45 51/2/45
f 54/4/46 53/2/46 52/2/46
f 53/2/46 54/4/46 55/5/46
f 53/2/46 55/5/46 56/4/46
f 59/6/47 58/7/48 57/7/47
f 58/7/21 59/6/47 60/6/21
f 63/7/49 62/6/14 61/7/14
f 62/6/14 63/7/49 64/6/50
f 67/6/16 66/7/51 65/7/16
f 66/7/51 67/6/52 68/6/51
f 68/6/51 69/7/53 66/7/51
f 69/7/53 68/6/51 70/6/53
f 65/7/54 72/7/54 71/7/54
f 72/7/54 65/7/54 58/7/54
f 58/7/54 65/7/54 66/7/54
f 58/7/54 66/7/54 57/7/54
f 57/7/54 66/7/54 69/7/54
f 57/7/54 69/7/54 73/7/54
f 73/7/54 69/7/54 74/7/54
f 73/7/54 74/7/54 61/7/54
f 61/7/54 74/7/54 75/7/54
f 61/7/54 75/7/54 63/7/54
f 76/6/55 57/7/47 73/7/55
f 57/7/47 76/6/55 59/6/47
f 70/6/53 74/7/56 69/7/53
f 74/7/28 70/6/53 77/6/28
f 67/6/16 71/7/57 78/6/58
f 71/7/57 67/6/16 65/7/16
f 75/7/59 64/6/49 63/7/49
f 64/6/49 75/7/59 79/6/59
f 74/7/28 79/6/59 75/7/60
f 79/6/59 74/7/28 77/6/28
f 78/6/57 72/7/61 80/6/61
f 72/7/61 78/6/57 71/7/57
f 62/6/14 73/7/55 61/7/14
f 73/7/55 62/6/62 76/6/55
f 80/6/61 58/7/21 60/6/21
f 58/7/21 80/6/61 72/7/63
