# Blender 4.0.2
# www.blender.org
mtllib block-snow-large-slope.mtl
o block-snow-large-slope
v 1.000000 0.732134 -0.312333
v 0.919820 0.919109 -0.262233
v 1.000000 -0.670873 -0.688268
v 0.919820 -0.857848 -0.738368
v 0.726250 0.996557 -0.241481
v 0.726250 -0.935295 -0.759120
v -0.726250 0.996557 -0.241481
v -0.726250 -0.935295 -0.759120
v -0.919820 0.919109 -0.262233
v -0.919820 -0.857848 -0.738368
v -1.000000 0.732134 -0.312333
v -1.000000 -0.670873 -0.688268
v 1.041062 -0.729668 -0.574612
v 1.000000 -0.735578 -0.446786
v 1.041062 0.726224 -0.184507
v 1.000000 0.667430 -0.070852
v -0.726250 -1.000000 -0.517638
v 0.726250 -1.000000 -0.517638
v -0.753625 -1.007311 -0.649007
v 0.753625 -1.007311 -0.649007
v -0.956874 -0.925991 -0.627217
v -1.041062 -0.729668 -0.574612
v -0.919820 -0.922553 -0.496886
v -1.000000 -0.735578 -0.446786
v 0.919820 0.854404 -0.020752
v 0.726250 0.931852 0.000000
v 0.956874 0.922548 -0.131903
v 0.753625 1.003867 -0.110113
v 0.919820 -0.922553 -0.496886
v 0.956874 -0.925991 -0.627217
v -1.041062 0.726224 -0.184507
v -1.000000 0.667430 -0.070852
v -0.726250 0.931852 0.000000
v -0.919820 0.854404 -0.020752
v -0.753625 1.003867 -0.110113
v -0.956874 0.922548 -0.131903
v 0.919820 0.761000 0.000000
v 0.726250 0.841179 0.000000
v 0.919820 0.761000 -0.070852
v 0.726250 0.841179 -0.070852
v -0.726250 0.841179 0.000000
v -0.726250 0.841179 -0.070852
v -0.726250 -1.000000 0.000000
v 0.726250 -1.000000 0.000000
v -0.726250 -1.000000 -0.517638
v 0.726250 -1.000000 -0.517638
v -0.919820 0.761000 0.000000
v -0.919820 0.761000 -0.070852
v 1.000000 0.667429 -0.070852
v 1.000000 0.667429 0.000000
v -1.000000 0.567429 0.000000
v -1.000000 0.567429 -0.070852
v 1.000000 -0.735578 -0.446786
v 1.000000 -0.735578 0.000000
v -1.000000 -0.738310 0.000000
v -1.000000 -0.738310 -0.446786
v -0.919820 -0.922553 0.000000
v -0.919820 -0.922553 -0.496886
v 0.919820 -0.922553 -0.496886
v 0.919820 -0.922553 0.000000
vn -0.0000 0.2588 -0.9659
vn 0.9774 0.2040 0.0547
vn 0.9255 -0.2487 0.2858
vn 0.9774 -0.2040 -0.0546
vn 0.9255 0.0725 0.3718
vn -0.2112 -0.9441 -0.2530
vn 0.1662 -0.9820 0.0893
vn -0.1662 -0.9820 0.0893
vn 0.2112 -0.9441 -0.2530
vn -0.6521 -0.7300 0.2047
vn -0.9774 -0.2040 -0.0546
vn -0.7071 -0.6830 -0.1830
vn -0.9774 -0.2040 -0.0547
vn -0.9255 -0.2487 0.2858
vn 0.7071 0.6830 0.1830
vn 0.1662 0.8058 0.5684
vn 0.6521 0.5298 0.5422
vn 0.1662 0.8058 0.5683
vn 0.2112 0.9441 0.2530
vn 0.6521 -0.7300 0.2046
vn 0.6521 -0.7300 0.2047
vn 0.7071 -0.6830 -0.1830
vn -0.9774 0.2040 0.0547
vn -0.9255 0.0725 0.3718
vn -0.2112 0.9441 0.2530
vn -0.6521 0.5298 0.5422
vn -0.1662 0.8058 0.5684
vn -0.7071 0.6830 0.1830
vn -0.1662 0.8058 0.5683
vn -0.6521 -0.7300 0.2046
vn -0.9255 0.0724 0.3718
vn 0.9774 -0.2040 -0.0547
vn 0.9255 0.0724 0.3718
vn -0.9255 -0.0725 -0.3718
vn -0.9255 0.2487 -0.2858
vn -0.6521 0.7300 -0.2047
vn -0.9774 0.2040 0.0546
vn -0.1662 0.9820 -0.0893
vn 0.1662 0.9820 -0.0893
vn 0.9255 -0.0725 -0.3718
vn 0.9255 0.2487 -0.2858
vn 0.6521 -0.5298 -0.5422
vn 0.1662 -0.8058 -0.5684
vn -0.1662 -0.8058 -0.5683
vn 0.1662 -0.8058 -0.5683
vn 0.9255 -0.0724 -0.3718
vn -0.6521 -0.5298 -0.5422
vn -0.1662 -0.8058 -0.5684
vn -0.9255 -0.0724 -0.3718
vn 0.6521 0.7300 -0.2047
vn 0.9774 0.2040 0.0546
vn -0.0000 -0.2588 0.9659
vn 0.5871 0.8095 -0.0000
vn 0.1951 0.9808 -0.0000
vn -0.1951 0.9808 -0.0000
vn -0.1230 -0.9924 -0.0000
vn 0.1892 -0.9819 -0.0000
vn -0.1892 -0.9819 -0.0000
vn -0.1230 -0.9924 0.0001
vn 0.1230 -0.9924 -0.0000
vn -0.7071 0.7071 -0.0001
vn -0.7071 0.7071 -0.0000
vn 0.9379 0.3469 -0.0000
vn 0.9688 0.2478 -0.0000
vn -0.9903 0.1392 -0.0000
vn -0.9808 0.1951 -0.0000
vn -0.7071 0.7071 0.0001
vn 0.9796 -0.2012 -0.0000
vn 0.9352 -0.3540 -0.0000
vn 0.9379 0.3469 -0.0001
vn -0.9326 -0.3609 -0.0000
vn -0.9790 -0.2038 -0.0000
vn -0.4589 -0.8885 -0.0000
vn -0.6965 -0.7176 -0.0000
vn 0.6984 -0.7157 -0.0000
vn 0.4603 -0.8878 -0.0000
vn -0.0000 -0.0000 1.0000
vn -0.1891 -0.9820 -0.0000
vn 0.1891 -0.9820 -0.0000
vt 0.593750 0.225000
vt 0.593750 0.125000
vt 0.593750 0.025000
vt 0.718750 0.197625
vt 0.718750 0.225000
vt 0.718750 0.025000
vt 0.718750 0.052375
vt 0.718750 0.033018
s 0
usemtl colormap.024
f 3/1/1 2/1/1 1/1/1
f 2/1/1 3/1/1 4/1/1
f 2/1/1 4/1/1 5/1/1
f 5/1/1 4/1/1 6/1/1
f 5/1/1 6/1/1 7/1/1
f 7/1/1 6/1/1 8/1/1
f 7/1/1 8/1/1 9/1/1
f 9/1/1 8/1/1 10/1/1
f 9/1/1 10/1/1 11/1/1
f 11/1/1 10/1/1 12/1/1
f 15/2/2 14/3/3 13/2/4
f 14/3/3 15/2/2 16/3/5
f 19/2/6 18/3/7 17/3/8
f 18/3/7 19/2/6 20/2/9
f 23/3/10 22/2/11 21/2/12
f 22/2/13 23/3/10 24/3/14
f 27/2/15 26/3/16 25/3/17
f 26/3/18 27/2/15 28/2/19
f 20/2/9 29/3/20 18/3/7
f 29/3/21 20/2/9 30/2/22
f 24/3/14 31/2/23 22/2/11
f 31/2/23 24/3/14 32/3/24
f 35/2/25 34/3/26 33/3/27
f 34/3/26 35/2/25 36/2/28
f 28/2/19 33/3/29 26/3/16
f 33/3/29 28/2/19 35/2/25
f 23/3/30 19/2/6 17/3/8
f 19/2/6 23/3/10 21/2/12
f 34/3/26 31/2/23 32/3/31
f 31/2/23 34/3/26 36/2/28
f 13/2/4 29/3/21 30/2/22
f 29/3/21 13/2/32 14/3/3
f 15/2/2 25/3/17 16/3/33
f 25/3/17 15/2/2 27/2/15
f 31/2/23 12/1/34 22/2/13
f 12/1/34 31/2/23 11/1/35
f 31/2/23 9/1/36 11/1/35
f 9/1/36 31/2/37 36/2/28
f 35/2/25 9/1/36 36/2/28
f 9/1/36 35/2/25 7/1/38
f 28/2/19 7/1/38 35/2/25
f 7/1/38 28/2/19 5/1/39
f 3/1/40 15/2/2 13/2/32
f 15/2/2 3/1/40 1/1/41
f 20/2/9 4/1/42 30/2/22
f 4/1/42 20/2/9 6/1/43
f 8/1/44 20/2/9 19/2/6
f 20/2/9 8/1/44 6/1/45
f 4/1/42 13/2/32 30/2/22
f 13/2/32 4/1/42 3/1/46
f 10/1/47 19/2/6 21/2/12
f 19/2/6 10/1/47 8/1/48
f 22/2/13 10/1/47 21/2/12
f 10/1/47 22/2/13 12/1/49
f 2/1/50 28/2/19 27/2/15
f 28/2/19 2/1/50 5/1/39
f 2/1/50 15/2/2 1/1/41
f 15/2/51 2/1/50 27/2/15
f 25/3/52 14/3/52 16/3/52
f 14/3/52 25/3/52 29/3/52
f 29/3/52 25/3/52 26/3/52
f 29/3/52 26/3/52 18/3/52
f 18/3/52 26/3/52 33/3/52
f 18/3/52 33/3/52 17/3/52
f 17/3/52 33/3/52 34/3/52
f 17/3/52 34/3/52 23/3/52
f 23/3/52 34/3/52 32/3/52
f 23/3/52 32/3/52 24/3/52
f 39/4/53 38/5/54 37/5/53
f 38/5/54 39/4/53 40/4/54
f 40/4/54 41/5/55 38/5/54
f 41/5/55 40/4/54 42/4/55
f 45/6/56 44/5/57 43/5/58
f 44/5/57 45/6/59 46/6/60
f 42/4/55 47/5/61 41/5/55
f 47/5/62 42/4/55 48/4/62
f 39/4/53 50/5/63 49/4/64
f 50/5/63 39/4/53 37/5/53
f 47/5/62 52/4/65 51/5/66
f 52/4/65 47/5/62 48/4/67
f 49/4/64 54/5/68 53/7/69
f 54/5/68 49/4/64 50/5/70
f 51/5/66 56/7/71 55/5/72
f 56/7/71 51/5/66 52/4/65
f 55/5/72 58/8/73 57/5/74
f 58/8/73 55/5/72 56/7/71
f 53/7/69 60/5/75 59/8/76
f 60/5/75 53/7/69 54/5/68
f 37/5/77 54/5/77 50/5/77
f 54/5/77 37/5/77 60/5/77
f 60/5/77 37/5/77 38/5/77
f 60/5/77 38/5/77 44/5/77
f 44/5/77 38/5/77 41/5/77
f 44/5/77 41/5/77 43/5/77
f 43/5/77 41/5/77 47/5/77
f 43/5/77 47/5/77 57/5/77
f 57/5/77 47/5/77 51/5/77
f 57/5/77 51/5/77 55/5/77
f 58/8/73 43/5/78 57/5/74
f 43/5/78 58/8/73 45/6/56
f 44/5/79 59/8/76 60/5/75
f 59/8/76 44/5/79 46/6/60
f 3/1/1 2/1/1 1/1/1
f 2/1/1 3/1/1 4/1/1
f 2/1/1 4/1/1 5/1/1
f 5/1/1 4/1/1 6/1/1
f 5/1/1 6/1/1 7/1/1
f 7/1/1 6/1/1 8/1/1
f 7/1/1 8/1/1 9/1/1
f 9/1/1 8/1/1 10/1/1
f 9/1/1 10/1/1 11/1/1
f 11/1/1 10/1/1 12/1/1
f 15/2/2 14/3/3 13/2/4
f 14/3/3 15/2/2 16/3/5
f 19/2/6 18/3/7 17/3/8
f 18/3/7 19/2/6 20/2/9
f 23/3/10 22/2/11 21/2/12
f 22/2/13 23/3/10 24/3/14
f 27/2/15 26/3/16 25/3/17
f 26/3/18 27/2/15 28/2/19
f 20/2/9 29/3/20 18/3/7
f 29/3/21 20/2/9 30/2/22
f 24/3/14 31/2/23 22/2/11
f 31/2/23 24/3/14 32/3/24
f 35/2/25 34/3/26 33/3/27
f 34/3/26 35/2/25 36/2/28
f 28/2/19 33/3/29 26/3/16
f 33/3/29 28/2/19 35/2/25
f 23/3/30 19/2/6 17/3/8
f 19/2/6 23/3/10 21/2/12
f 34/3/26 31/2/23 32/3/31
f 31/2/23 34/3/26 36/2/28
f 13/2/4 29/3/21 30/2/22
f 29/3/21 13/2/32 14/3/3
f 15/2/2 25/3/17 16/3/33
f 25/3/17 15/2/2 27/2/15
f 31/2/23 12/1/34 22/2/13
f 12/1/34 31/2/23 11/1/35
f 31/2/23 9/1/36 11/1/35
f 9/1/36 31/2/37 36/2/28
f 35/2/25 9/1/36 36/2/28
f 9/1/36 35/2/25 7/1/38
f 28/2/19 7/1/38 35/2/25
f 7/1/38 28/2/19 5/1/39
f 3/1/40 15/2/2 13/2/32
f 15/2/2 3/1/40 1/1/41
f 20/2/9 4/1/42 30/2/22
f 4/1/42 20/2/9 6/1/43
f 8/1/44 20/2/9 19/2/6
f 20/2/9 8/1/44 6/1/45
f 4/1/42 13/2/32 30/2/22
f 13/2/32 4/1/42 3/1/46
f 10/1/47 19/2/6 21/2/12
f 19/2/6 10/1/47 8/1/48
f 22/2/13 10/1/47 21/2/12
f 10/1/47 22/2/13 12/1/49
f 2/1/50 28/2/19 27/2/15
f 28/2/19 2/1/50 5/1/39
f 2/1/50 15/2/2 1/1/41
f 15/2/51 2/1/50 27/2/15
f 25/3/52 14/3/52 16/3/52
f 14/3/52 25/3/52 29/3/52
f 29/3/52 25/3/52 26/3/52
f 29/3/52 26/3/52 18/3/52
f 18/3/52 26/3/52 33/3/52
f 18/3/52 33/3/52 17/3/52
f 17/3/52 33/3/52 34/3/52
f 17/3/52 34/3/52 23/3/52
f 23/3/52 34/3/52 32/3/52
f 23/3/52 32/3/52 24/3/52
f 39/4/53 38/5/54 37/5/53
f 38/5/54 39/4/53 40/4/54
f 40/4/54 41/5/55 38/5/54
f 41/5/55 40/4/54 42/4/55
f 45/6/56 44/5/57 43/5/58
f 44/5/57 45/6/59 46/6/60
f 42/4/55 47/5/61 41/5/55
f 47/5/62 42/4/55 48/4/62
f 39/4/53 50/5/63 49/4/64
f 50/5/63 39/4/53 37/5/53
f 47/5/62 52/4/65 51/5/66
f 52/4/65 47/5/62 48/4/67
f 49/4/64 54/5/68 53/7/69
f 54/5/68 49/4/64 50/5/70
f 51/5/66 56/7/71 55/5/72
f 56/7/71 51/5/66 52/4/65
f 55/5/72 58/8/73 57/5/74
f 58/8/73 55/5/72 56/7/71
f 53/7/69 60/5/75 59/8/76
f 60/5/75 53/7/69 54/5/68
f 37/5/77 54/5/77 50/5/77
f 54/5/77 37/5/77 60/5/77
f 60/5/77 37/5/77 38/5/77
f 60/5/77 38/5/77 44/5/77
f 44/5/77 38/5/77 41/5/77
f 44/5/77 41/5/77 43/5/77
f 43/5/77 41/5/77 47/5/77
f 43/5/77 47/5/77 57/5/77
f 57/5/77 47/5/77 51/5/77
f 57/5/77 51/5/77 55/5/77
f 58/8/73 43/5/78 57/5/74
f 43/5/78 58/8/73 45/6/56
f 44/5/79 59/8/76 60/5/75
f 59/8/76 44/5/79 46/6/60
