# Blender 4.0.2
# www.blender.org
mtllib block-snow-low-hexagon.mtl
o block-snow-low-hexagon
v 0.500000 -0.288675 -0.500000
v 0.500000 0.288675 -0.500000
v 0.000000 -0.577350 -0.500000
v 0.000000 0.577350 -0.500000
v -0.500000 -0.288675 -0.500000
v -0.500000 0.288675 -0.500000
v 0.550000 -0.317542 -0.375000
v 0.550000 0.317543 -0.375000
v 0.000000 0.635085 -0.375000
v -0.550000 0.317543 -0.375000
v -0.550000 -0.317542 -0.375000
v 0.000000 -0.635085 -0.375000
v -0.500000 -0.288675 -0.250000
v -0.500000 0.288675 -0.250000
v 0.000000 -0.577350 -0.250000
v 0.500000 -0.288675 -0.250000
v 0.500000 0.288675 -0.250000
v 0.000000 0.577350 -0.250000
v 0.000000 0.577350 -0.000000
v -0.500000 0.288675 -0.000000
v 0.000000 0.577350 -0.250000
v 0.500000 0.288675 -0.000000
v 0.500000 -0.288675 -0.000000
v 0.000000 -0.577350 -0.000000
v -0.500000 -0.288675 -0.000000
v 0.000000 -0.577350 -0.250000
vn -0.0000 -0.0000 -1.0000
vn 0.7862 -0.4539 -0.4193
vn 0.8660 0.5000 -0.0000
vn 0.8660 -0.5000 -0.0000
vn 0.7862 0.4539 -0.4193
vn -0.0000 0.9079 -0.4193
vn -0.8660 0.5000 -0.0000
vn -0.0000 1.0000 -0.0000
vn -0.7862 0.4539 -0.4193
vn -0.7862 -0.4539 -0.4193
vn -0.0000 -1.0000 -0.0000
vn -0.8660 -0.5000 -0.0000
vn -0.0000 -0.9078 -0.4193
vn -0.7862 -0.4539 0.4193
vn -0.7862 0.4539 0.4193
vn -0.0000 -0.9079 0.4193
vn -0.0000 -0.9079 -0.4193
vn 0.7862 -0.4539 0.4193
vn 0.7862 0.4539 0.4193
vn -0.0000 0.9078 0.4193
vn -0.0000 -0.9078 0.4193
vn -0.0000 0.9078 -0.4193
vn -0.0000 0.9079 0.4193
vn -0.5000 0.8660 -0.0000
vn -0.0000 -0.0000 1.0000
vn 0.5000 0.8660 -0.0000
vn -0.5000 -0.8660 -0.0000
vn 0.5000 -0.8660 -0.0000
vn -1.0000 -0.0000 -0.0000
vn 1.0000 -0.0000 -0.0000
vt 0.593750 0.225000
vt 0.593750 0.125000
vt 0.593750 0.025000
vt 0.718750 0.025000
vt 0.718750 0.225000
s 0
usemtl colormap.040
f 3/1/1 2/1/1 1/1/1
f 2/1/1 3/1/1 4/1/1
f 4/1/1 3/1/1 5/1/1
f 4/1/1 5/1/1 6/1/1
f 1/1/2 8/2/3 7/2/4
f 8/2/3 1/1/2 2/1/5
f 4/1/6 10/2/7 9/2/8
f 10/2/7 4/1/6 6/1/9
f 5/1/10 12/2/11 11/2/12
f 12/2/11 5/1/10 3/1/13
f 13/3/14 10/2/7 11/2/12
f 10/2/7 13/3/14 14/3/15
f 10/2/7 5/1/10 11/2/12
f 5/1/10 10/2/7 6/1/9
f 11/2/12 15/3/16 13/3/14
f 15/3/16 11/2/12 12/2/11
f 3/1/17 7/2/4 12/2/11
f 7/2/4 3/1/17 1/1/2
f 8/2/3 16/3/18 7/2/4
f 16/3/18 8/2/3 17/3/19
f 9/2/8 14/3/15 18/3/20
f 14/3/15 9/2/8 10/2/7
f 12/2/11 16/3/18 15/3/21
f 16/3/18 12/2/11 7/2/4
f 2/1/5 9/2/8 8/2/3
f 9/2/8 2/1/5 4/1/22
f 8/2/3 18/3/23 17/3/19
f 18/3/23 8/2/3 9/2/8
f 21/4/24 20/5/24 19/5/24
f 20/5/24 21/4/24 14/4/24
f 19/5/25 23/5/25 22/5/25
f 23/5/25 19/5/25 24/5/25
f 24/5/25 19/5/25 20/5/25
f 24/5/25 20/5/25 25/5/25
f 17/4/26 19/5/26 22/5/26
f 19/5/26 17/4/26 21/4/26
f 13/4/27 24/5/27 25/5/27
f 24/5/27 13/4/27 26/4/27
f 26/4/28 23/5/28 24/5/28
f 23/5/28 26/4/28 16/4/28
f 20/5/29 13/4/29 25/5/29
f 13/4/29 20/5/29 14/4/29
f 17/4/30 23/5/30 16/4/30
f 23/5/30 17/4/30 22/5/30
f 3/1/1 2/1/1 1/1/1
f 2/1/1 3/1/1 4/1/1
f 4/1/1 3/1/1 5/1/1
f 4/1/1 5/1/1 6/1/1
f 1/1/2 8/2/3 7/2/4
f 8/2/3 1/1/2 2/1/5
f 4/1/6 10/2/7 9/2/8
f 10/2/7 4/1/6 6/1/9
f 5/1/10 12/2/11 11/2/12
f 12/2/11 5/1/10 3/1/13
f 13/3/14 10/2/7 11/2/12
f 10/2/7 13/3/14 14/3/15
f 10/2/7 5/1/10 11/2/12
f 5/1/10 10/2/7 6/1/9
f 11/2/12 15/3/16 13/3/14
f 15/3/16 11/2/12 12/2/11
f 3/1/17 7/2/4 12/2/11
f 7/2/4 3/1/17 1/1/2
f 8/2/3 16/3/18 7/2/4
f 16/3/18 8/2/3 17/3/19
f 9/2/8 14/3/15 18/3/20
f 14/3/15 9/2/8 10/2/7
f 12/2/11 16/3/18 15/3/21
f 16/3/18 12/2/11 7/2/4
f 2/1/5 9/2/8 8/2/3
f 9/2/8 2/1/5 4/1/22
f 8/2/3 18/3/23 17/3/19
f 18/3/23 8/2/3 9/2/8
f 21/4/24 20/5/24 19/5/24
f 20/5/24 21/4/24 14/4/24
f 19/5/25 23/5/25 22/5/25
f 23/5/25 19/5/25 24/5/25
f 24/5/25 19/5/25 20/5/25
f 24/5/25 20/5/25 25/5/25
f 17/4/26 19/5/26 22/5/26
f 19/5/26 17/4/26 21/4/26
f 13/4/27 24/5/27 25/5/27
f 24/5/27 13/4/27 26/4/27
f 26/4/28 23/5/28 24/5/28
f 23/5/28 26/4/28 16/4/28
f 20/5/29 13/4/29 25/5/29
f 13/4/29 20/5/29 14/4/29
f 17/4/30 23/5/30 16/4/30
f 23/5/30 17/4/30 22/5/30
