# Blender 4.0.2
# www.blender.org
mtllib block-snow-large-slope-steep-narrow.mtl
o block-snow-large-slope-steep-narrow
v 0.500000 0.691451 -0.373913
v 0.419820 0.859088 -0.277127
v 0.500000 -0.566451 -1.100163
v 0.419820 -0.734088 -1.196948
v 0.226250 0.928525 -0.237037
v 0.226250 -0.803525 -1.237038
v -0.226250 0.928525 -0.237037
v -0.226250 -0.803525 -1.237038
v -0.419820 0.859088 -0.277127
v -0.419820 -0.734088 -1.196948
v -0.500000 0.691451 -0.373913
v -0.500000 -0.566451 -1.100163
v 0.541062 -0.652658 -1.005597
v 0.500000 -0.691451 -0.883656
v 0.541062 0.652658 -0.251972
v 0.500000 0.566451 -0.157406
v -0.226250 -0.928525 -1.020531
v 0.226250 -0.928525 -1.020531
v -0.253625 -0.901586 -1.149316
v 0.253625 -0.901586 -1.149316
v -0.456874 -0.828677 -1.107221
v -0.541062 -0.652658 -1.005597
v -0.419820 -0.859088 -0.980442
v -0.500000 -0.691451 -0.883656
v 0.419820 0.734088 -0.060621
v 0.226250 0.803525 -0.020531
v 0.456874 0.828677 -0.150347
v 0.253625 0.901586 -0.108253
v 0.419820 -0.859088 -0.980442
v 0.456874 -0.828677 -1.107221
v -0.541062 0.652658 -0.251972
v -0.500000 0.566451 -0.157406
v -0.419820 0.734088 -0.060621
v -0.456874 0.828677 -0.150347
v -0.226250 0.803525 -0.020531
v -0.253625 0.901586 -0.108253
v -0.226250 -0.928525 -0.053784
v 0.226250 -0.928525 -0.053784
v -0.419820 -0.859088 -0.053784
v -0.419820 -0.859088 -0.980442
v -0.500000 -0.691451 -0.053784
v 0.419820 -0.859088 -0.980442
v 0.419820 -0.859088 -0.053784
v 0.500000 -0.691451 -0.053784
v 0.500000 0.566451 -0.157406
v 0.500000 0.566451 -0.053784
v -0.500000 0.566451 -0.053784
v -0.500000 0.566451 -0.157406
v -0.226250 0.740201 -0.053784
v -0.226250 0.740201 -0.157406
v 0.226250 0.740201 -0.053784
v 0.226250 0.740201 -0.157406
v -0.419820 0.660021 -0.053784
v -0.419820 0.660021 -0.157406
v 0.419820 0.660021 -0.053784
v 0.419820 0.660021 -0.157406
vn -0.0000 0.5000 -0.8660
vn 0.9774 0.1829 0.1056
vn 0.9255 -0.3142 0.2117
vn 0.9774 -0.1829 -0.1056
vn 0.9255 -0.0262 0.3779
vn -0.2112 -0.8465 -0.4887
vn 0.1662 -0.9717 -0.1679
vn -0.1662 -0.9717 -0.1679
vn 0.2112 -0.8465 -0.4887
vn -0.6521 -0.7581 0.0088
vn -0.9774 -0.1829 -0.1056
vn -0.7071 -0.6124 -0.3535
vn -0.6521 -0.7581 0.0087
vn -0.9255 -0.3142 0.2117
vn 0.7071 0.6124 0.3535
vn 0.1662 0.6313 0.7575
vn 0.6521 0.3714 0.6609
vn 0.2112 0.8465 0.4887
vn 0.6521 -0.7581 0.0087
vn 0.6521 -0.7581 0.0088
vn 0.7071 -0.6124 -0.3536
vn -0.9774 0.1829 0.1056
vn -0.9255 -0.0262 0.3779
vn -0.1662 0.6313 0.7575
vn -0.7071 0.6124 0.3535
vn -0.6521 0.3714 0.6609
vn -0.2112 0.8465 0.4887
vn -0.7071 -0.6124 -0.3536
vn -0.6521 0.3715 0.6609
vn -0.9255 -0.0263 0.3779
vn -0.7071 0.6124 0.3536
vn 0.7071 -0.6124 -0.3535
vn 0.6521 0.3715 0.6609
vn 0.9255 -0.0263 0.3779
vn 0.7071 0.6124 0.3536
vn -0.9255 0.0263 -0.3779
vn -0.9255 0.3142 -0.2117
vn -0.6521 0.7581 -0.0087
vn -0.6521 0.7581 -0.0088
vn -0.1662 0.9717 0.1679
vn 0.1662 0.9717 0.1679
vn 0.9255 0.0263 -0.3779
vn 0.9255 0.3142 -0.2117
vn 0.1662 -0.6313 -0.7575
vn 0.6521 -0.3714 -0.6609
vn 0.1662 -0.6313 -0.7576
vn -0.1662 -0.6313 -0.7575
vn -0.6521 -0.3714 -0.6609
vn -0.7071 -0.6123 -0.3536
vn -0.1662 -0.6313 -0.7576
vn 0.6521 0.7581 -0.0088
vn 0.6521 0.7581 -0.0087
vn -0.0000 -0.5000 0.8660
vn -0.1601 -0.9871 -0.0000
vn 0.1713 -0.9852 -0.0001
vn -0.1713 -0.9852 -0.0000
vn 0.1713 -0.9852 -0.0000
vn 0.1601 -0.9871 -0.0000
vn -0.9752 -0.2212 -0.0000
vn -0.5955 -0.8033 -0.0000
vn -0.6702 -0.7421 -0.0000
vn -0.9564 -0.2921 -0.0000
vn 0.9564 -0.2921 -0.0000
vn 0.6702 -0.7421 -0.0000
vn 0.5955 -0.8033 -0.0000
vn 0.9752 -0.2212 -0.0000
vn -0.1714 -0.9852 -0.0000
vn -0.1602 -0.9871 -0.0000
vn 0.1602 -0.9871 -0.0000
vn 0.1714 -0.9852 -0.0000
vn 0.9549 0.2969 -0.0000
vn 0.9379 0.3469 -0.0000
vn -0.9379 0.3469 -0.0000
vn -0.9549 0.2969 -0.0000
vn 0.1951 0.9808 -0.0000
vn -0.1951 0.9808 -0.0000
vn -0.5871 0.8095 -0.0000
vn 0.5871 0.8095 -0.0000
vn -0.0000 -0.0000 1.0000
vt 0.593750 0.225000
vt 0.593750 0.125000
vt 0.593750 0.025000
vt 0.718750 0.025000
vt 0.718750 0.225000
vt 0.718750 0.033294
vt 0.718750 0.053317
vt 0.718750 0.203563
s 0
usemtl colormap.025
f 3/1/1 2/1/1 1/1/1
f 2/1/1 3/1/1 4/1/1
f 2/1/1 4/1/1 5/1/1
f 5/1/1 4/1/1 6/1/1
f 5/1/1 6/1/1 7/1/1
f 7/1/1 6/1/1 8/1/1
f 7/1/1 8/1/1 9/1/1
f 9/1/1 8/1/1 10/1/1
f 9/1/1 10/1/1 11/1/1
f 11/1/1 10/1/1 12/1/1
f 15/2/2 14/3/3 13/2/4
f 14/3/3 15/2/2 16/3/5
f 19/2/6 18/3/7 17/3/8
f 18/3/7 19/2/6 20/2/9
f 23/3/10 22/2/11 21/2/12
f 22/2/11 23/3/13 24/3/14
f 27/2/15 26/3/16 25/3/17
f 26/3/16 27/2/15 28/2/18
f 20/2/9 29/3/19 18/3/7
f 29/3/20 20/2/9 30/2/21
f 24/3/14 31/2/22 22/2/11
f 31/2/22 24/3/14 32/3/23
f 35/3/24 34/2/25 33/3/26
f 34/2/25 35/3/24 36/2/27
f 28/2/18 35/3/24 26/3/16
f 35/3/24 28/2/18 36/2/27
f 23/3/13 19/2/6 17/3/8
f 19/2/6 23/3/10 21/2/28
f 33/3/29 31/2/22 32/3/30
f 31/2/22 33/3/26 34/2/31
f 13/2/4 29/3/20 30/2/32
f 29/3/19 13/2/4 14/3/3
f 15/2/2 25/3/33 16/3/34
f 25/3/17 15/2/2 27/2/35
f 31/2/22 12/1/36 22/2/11
f 12/1/36 31/2/22 11/1/37
f 31/2/22 9/1/38 11/1/37
f 9/1/39 31/2/22 34/2/25
f 7/1/40 34/2/31 36/2/27
f 34/2/31 7/1/40 9/1/39
f 28/2/18 7/1/40 36/2/27
f 7/1/40 28/2/18 5/1/41
f 3/1/42 15/2/2 13/2/4
f 15/2/2 3/1/42 1/1/43
f 6/1/44 30/2/32 20/2/9
f 30/2/32 6/1/44 4/1/45
f 19/2/6 6/1/46 20/2/9
f 6/1/44 19/2/6 8/1/47
f 4/1/45 13/2/4 30/2/21
f 13/2/4 4/1/45 3/1/42
f 10/1/48 19/2/6 21/2/49
f 19/2/6 10/1/48 8/1/50
f 22/2/11 10/1/48 21/2/28
f 10/1/48 22/2/11 12/1/36
f 2/1/51 28/2/18 27/2/15
f 28/2/18 2/1/52 5/1/41
f 2/1/52 15/2/2 1/1/43
f 15/2/2 2/1/51 27/2/15
f 25/3/53 14/3/53 16/3/53
f 14/3/53 25/3/53 29/3/53
f 29/3/53 25/3/53 26/3/53
f 29/3/53 26/3/53 18/3/53
f 18/3/53 26/3/53 35/3/53
f 18/3/53 35/3/53 17/3/53
f 17/3/53 35/3/53 33/3/53
f 17/3/53 33/3/53 23/3/53
f 23/3/53 33/3/53 32/3/53
f 23/3/53 32/3/53 24/3/53
f 17/4/54 38/5/55 37/5/56
f 38/5/57 17/4/54 18/4/58
f 41/5/59 40/6/60 39/5/61
f 40/6/60 41/5/59 24/7/62
f 14/7/63 43/5/64 42/6/65
f 43/5/64 14/7/63 44/5/66
f 40/6/60 37/5/67 39/5/61
f 37/5/67 40/6/60 17/4/68
f 18/4/69 43/5/64 38/5/70
f 43/5/64 18/4/69 42/6/65
f 45/8/71 44/5/66 14/7/63
f 44/5/66 45/8/71 46/5/72
f 47/5/73 24/7/62 41/5/59
f 24/7/62 47/5/73 48/8/74
f 51/5/75 50/8/76 49/5/76
f 50/8/76 51/5/75 52/8/75
f 53/5/77 48/8/74 47/5/73
f 48/8/74 53/5/77 54/8/77
f 56/8/78 51/5/75 55/5/78
f 51/5/75 56/8/78 52/8/75
f 50/8/76 53/5/77 49/5/76
f 53/5/77 50/8/76 54/8/77
f 56/8/78 46/5/72 45/8/71
f 46/5/72 56/8/78 55/5/78
f 55/5/79 44/5/79 46/5/79
f 44/5/79 55/5/79 43/5/79
f 43/5/79 55/5/79 51/5/79
f 43/5/79 51/5/79 38/5/79
f 38/5/79 51/5/79 49/5/79
f 38/5/79 49/5/79 37/5/79
f 37/5/79 49/5/79 53/5/79
f 37/5/79 53/5/79 39/5/79
f 39/5/79 53/5/79 47/5/79
f 39/5/79 47/5/79 41/5/79
f 3/1/1 2/1/1 1/1/1
f 2/1/1 3/1/1 4/1/1
f 2/1/1 4/1/1 5/1/1
f 5/1/1 4/1/1 6/1/1
f 5/1/1 6/1/1 7/1/1
f 7/1/1 6/1/1 8/1/1
f 7/1/1 8/1/1 9/1/1
f 9/1/1 8/1/1 10/1/1
f 9/1/1 10/1/1 11/1/1
f 11/1/1 10/1/1 12/1/1
f 15/2/2 14/3/3 13/2/4
f 14/3/3 15/2/2 16/3/5
f 19/2/6 18/3/7 17/3/8
f 18/3/7 19/2/6 20/2/9
f 23/3/10 22/2/11 21/2/12
f 22/2/11 23/3/13 24/3/14
f 27/2/15 26/3/16 25/3/17
f 26/3/16 27/2/15 28/2/18
f 20/2/9 29/3/19 18/3/7
f 29/3/20 20/2/9 30/2/21
f 24/3/14 31/2/22 22/2/11
f 31/2/22 24/3/14 32/3/23
f 35/3/24 34/2/25 33/3/26
f 34/2/25 35/3/24 36/2/27
f 28/2/18 35/3/24 26/3/16
f 35/3/24 28/2/18 36/2/27
f 23/3/13 19/2/6 17/3/8
f 19/2/6 23/3/10 21/2/28
f 33/3/29 31/2/22 32/3/30
f 31/2/22 33/3/26 34/2/31
f 13/2/4 29/3/20 30/2/32
f 29/3/19 13/2/4 14/3/3
f 15/2/2 25/3/33 16/3/34
f 25/3/17 15/2/2 27/2/35
f 31/2/22 12/1/36 22/2/11
f 12/1/36 31/2/22 11/1/37
f 31/2/22 9/1/38 11/1/37
f 9/1/39 31/2/22 34/2/25
f 7/1/40 34/2/31 36/2/27
f 34/2/31 7/1/40 9/1/39
f 28/2/18 7/1/40 36/2/27
f 7/1/40 28/2/18 5/1/41
f 3/1/42 15/2/2 13/2/4
f 15/2/2 3/1/42 1/1/43
f 6/1/44 30/2/32 20/2/9
f 30/2/32 6/1/44 4/1/45
f 19/2/6 6/1/46 20/2/9
f 6/1/44 19/2/6 8/1/47
f 4/1/45 13/2/4 30/2/21
f 13/2/4 4/1/45 3/1/42
f 10/1/48 19/2/6 21/2/49
f 19/2/6 10/1/48 8/1/50
f 22/2/11 10/1/48 21/2/28
f 10/1/48 22/2/11 12/1/36
f 2/1/51 28/2/18 27/2/15
f 28/2/18 2/1/52 5/1/41
f 2/1/52 15/2/2 1/1/43
f 15/2/2 2/1/51 27/2/15
f 25/3/53 14/3/53 16/3/53
f 14/3/53 25/3/53 29/3/53
f 29/3/53 25/3/53 26/3/53
f 29/3/53 26/3/53 18/3/53
f 18/3/53 26/3/53 35/3/53
f 18/3/53 35/3/53 17/3/53
f 17/3/53 35/3/53 33/3/53
f 17/3/53 33/3/53 23/3/53
f 23/3/53 33/3/53 32/3/53
f 23/3/53 32/3/53 24/3/53
f 17/4/54 38/5/55 37/5/56
f 38/5/57 17/4/54 18/4/58
f 41/5/59 40/6/60 39/5/61
f 40/6/60 41/5/59 24/7/62
f 14/7/63 43/5/64 42/6/65
f 43/5/64 14/7/63 44/5/66
f 40/6/60 37/5/67 39/5/61
f 37/5/67 40/6/60 17/4/68
f 18/4/69 43/5/64 38/5/70
f 43/5/64 18/4/69 42/6/65
f 45/8/71 44/5/66 14/7/63
f 44/5/66 45/8/71 46/5/72
f 47/5/73 24/7/62 41/5/59
f 24/7/62 47/5/73 48/8/74
f 51/5/75 50/8/76 49/5/76
f 50/8/76 51/5/75 52/8/75
f 53/5/77 48/8/74 47/5/73
f 48/8/74 53/5/77 54/8/77
f 56/8/78 51/5/75 55/5/78
f 51/5/75 56/8/78 52/8/75
f 50/8/76 53/5/77 49/5/76
f 53/5/77 50/8/76 54/8/77
f 56/8/78 46/5/72 45/8/71
f 46/5/72 56/8/78 55/5/78
f 55/5/79 44/5/79 46/5/79
f 44/5/79 55/5/79 43/5/79
f 43/5/79 55/5/79 51/5/79
f 43/5/79 51/5/79 38/5/79
f 38/5/79 51/5/79 49/5/79
f 38/5/79 49/5/79 37/5/79
f 37/5/79 49/5/79 53/5/79
f 37/5/79 53/5/79 39/5/79
f 39/5/79 53/5/79 47/5/79
f 39/5/79 47/5/79 41/5/79
