# Blender 4.0.2
# www.blender.org
mtllib block-snow-narrow.mtl
o block-snow-narrow
v 0.350000 -0.076250 -1.000000
v 0.350000 0.076250 -1.000000
v 0.269821 -0.269821 -1.000000
v 0.269821 0.269821 -1.000000
v 0.076250 0.350000 -1.000000
v 0.076250 -0.350000 -1.000000
v -0.076250 -0.350000 -1.000000
v -0.076250 0.350000 -1.000000
v -0.269821 -0.269821 -1.000000
v -0.269821 0.269821 -1.000000
v -0.350000 0.076250 -1.000000
v -0.350000 -0.076250 -1.000000
v 0.391062 -0.103625 -0.875000
v 0.350000 -0.076250 -0.750000
v 0.391062 0.103625 -0.875000
v 0.350000 0.076250 -0.750000
v -0.076250 -0.350000 -0.750000
v 0.076250 -0.350000 -0.750000
v -0.103625 -0.391062 -0.875000
v 0.103625 -0.391062 -0.875000
v -0.306874 -0.306874 -0.875000
v -0.391062 -0.103625 -0.875000
v -0.269821 -0.269821 -0.750000
v -0.350000 -0.076250 -0.750000
v 0.269821 0.269821 -0.750000
v 0.076250 0.350000 -0.750000
v 0.306874 0.306874 -0.875000
v 0.103625 0.391062 -0.875000
v 0.269821 -0.269821 -0.750000
v 0.306874 -0.306874 -0.875000
v -0.391062 0.103625 -0.875000
v -0.350000 0.076250 -0.750000
v -0.076250 0.350000 -0.750000
v -0.269821 0.269821 -0.750000
v -0.103625 0.391062 -0.875000
v -0.306874 0.306874 -0.875000
v 0.076250 -0.350000 0.000000
v 0.269821 -0.269821 0.000000
v 0.076250 -0.350000 -0.750000
v 0.269821 -0.269821 -0.750000
v -0.269821 -0.269821 0.000000
v -0.269821 -0.269821 -0.750000
v -0.350000 -0.076250 0.000000
v -0.350000 -0.076250 -0.750000
v 0.269821 0.269821 0.000000
v 0.076250 0.350000 0.000000
v 0.269821 0.269821 -0.750000
v 0.076250 0.350000 -0.750000
v -0.076250 0.350000 0.000000
v -0.076250 0.350000 -0.750000
v 0.350000 0.076250 0.000000
v 0.350000 -0.076250 0.000000
v -0.076250 -0.350000 0.000000
v -0.269821 0.269821 0.000000
v -0.350000 0.076250 0.000000
v -0.076250 -0.350000 -0.750000
v -0.269821 0.269821 -0.750000
v 0.350000 0.076250 -0.750000
v -0.350000 0.076250 -0.750000
v 0.350000 -0.076250 -0.750000
vn -0.0000 -0.0000 -1.0000
vn 0.9774 0.2112 -0.0000
vn 0.9255 -0.1662 0.3404
vn 0.9774 -0.2112 -0.0000
vn 0.9775 0.2112 -0.0000
vn 0.9255 0.1662 0.3404
vn -0.2112 -0.9775 -0.0000
vn 0.1662 -0.9255 0.3404
vn -0.1662 -0.9255 0.3404
vn -0.2112 -0.9774 -0.0000
vn 0.2112 -0.9774 -0.0000
vn -0.6521 -0.6521 0.3866
vn -0.9774 -0.2112 -0.0000
vn -0.7071 -0.7071 -0.0000
vn -0.9255 -0.1662 0.3404
vn 0.7071 0.7071 -0.0000
vn 0.1662 0.9255 0.3404
vn 0.6521 0.6521 0.3866
vn 0.2112 0.9774 -0.0000
vn 0.6521 -0.6521 0.3866
vn 0.7071 -0.7071 -0.0000
vn -0.9774 0.2112 -0.0000
vn -0.9775 0.2112 -0.0000
vn -0.9255 0.1662 0.3404
vn -0.2112 0.9774 -0.0000
vn -0.6521 0.6521 0.3866
vn -0.1662 0.9255 0.3404
vn -0.7071 0.7071 -0.0000
vn 0.2112 0.9775 -0.0000
vn -0.9255 -0.1662 -0.3404
vn -0.9255 0.1662 -0.3404
vn -0.6521 0.6521 -0.3866
vn -0.1662 0.9255 -0.3404
vn 0.1662 0.9255 -0.3404
vn 0.9255 -0.1662 -0.3404
vn 0.9255 0.1662 -0.3404
vn 0.1662 -0.9255 -0.3404
vn 0.6521 -0.6521 -0.3866
vn -0.1662 -0.9255 -0.3404
vn 0.2112 -0.9775 -0.0000
vn -0.6521 -0.6521 -0.3866
vn 0.6521 0.6521 -0.3866
vn 0.1951 -0.9808 -0.0000
vn -0.9808 -0.1951 -0.0000
vn -0.9808 -0.1951 0.0001
vn 0.1951 0.9808 -0.0000
vn -0.1951 0.9808 -0.0000
vn -0.0000 -0.0000 1.0000
vn -0.1951 -0.9808 -0.0000
vn 0.9808 0.1951 -0.0000
vn 0.9808 0.1951 0.0001
vn -0.9808 0.1951 -0.0000
vn -0.9808 0.1951 -0.0001
vn 0.9808 -0.1951 -0.0000
vn 0.9808 -0.1951 -0.0001
vt 0.593750 0.225000
vt 0.593750 0.125000
vt 0.593750 0.025000
vt 0.718750 0.025000
vt 0.718750 0.225000
s 0
usemtl colormap.034
f 3/1/1 2/1/1 1/1/1
f 2/1/1 3/1/1 4/1/1
f 4/1/1 3/1/1 5/1/1
f 5/1/1 3/1/1 6/1/1
f 5/1/1 6/1/1 7/1/1
f 5/1/1 7/1/1 8/1/1
f 8/1/1 7/1/1 9/1/1
f 8/1/1 9/1/1 10/1/1
f 10/1/1 9/1/1 11/1/1
f 11/1/1 9/1/1 12/1/1
f 15/2/2 14/3/3 13/2/4
f 14/3/3 15/2/5 16/3/6
f 19/2/7 18/3/8 17/3/9
f 18/3/8 19/2/10 20/2/11
f 23/3/12 22/2/13 21/2/14
f 22/2/13 23/3/12 24/3/15
f 27/2/16 26/3/17 25/3/18
f 26/3/17 27/2/16 28/2/19
f 20/2/11 29/3/20 18/3/8
f 29/3/20 20/2/11 30/2/21
f 24/3/15 31/2/22 22/2/13
f 31/2/23 24/3/15 32/3/24
f 35/2/25 34/3/26 33/3/27
f 34/3/26 35/2/25 36/2/28
f 28/2/29 33/3/27 26/3/17
f 33/3/27 28/2/19 35/2/25
f 21/2/14 17/3/9 23/3/12
f 17/3/9 21/2/14 19/2/10
f 34/3/26 31/2/22 32/3/24
f 31/2/22 34/3/26 36/2/28
f 13/2/4 29/3/20 30/2/21
f 29/3/20 13/2/4 14/3/3
f 15/2/2 25/3/18 16/3/6
f 25/3/18 15/2/2 27/2/16
f 31/2/22 12/1/30 22/2/13
f 12/1/30 31/2/23 11/1/31
f 31/2/22 10/1/32 11/1/31
f 10/1/32 31/2/22 36/2/28
f 8/1/33 36/2/28 35/2/25
f 36/2/28 8/1/33 10/1/32
f 28/2/19 8/1/33 35/2/25
f 8/1/33 28/2/29 5/1/34
f 1/1/35 15/2/2 13/2/4
f 15/2/5 1/1/35 2/1/36
f 6/1/37 30/2/21 20/2/11
f 30/2/21 6/1/37 3/1/38
f 7/1/39 20/2/11 19/2/10
f 20/2/40 7/1/39 6/1/37
f 3/1/38 13/2/4 30/2/21
f 13/2/4 3/1/38 1/1/35
f 9/1/41 19/2/10 21/2/14
f 19/2/10 9/1/41 7/1/39
f 22/2/13 9/1/41 21/2/14
f 9/1/41 22/2/13 12/1/30
f 4/1/42 28/2/19 27/2/16
f 28/2/19 4/1/42 5/1/34
f 4/1/42 15/2/2 2/1/36
f 15/2/2 4/1/42 27/2/16
f 39/4/43 38/5/21 37/5/43
f 38/5/21 39/4/43 40/4/21
f 43/5/44 42/4/14 41/5/14
f 42/4/14 43/5/44 44/4/45
f 47/4/16 46/5/46 45/5/16
f 46/5/46 47/4/16 48/4/46
f 48/4/46 49/5/47 46/5/46
f 49/5/47 48/4/46 50/4/47
f 45/5/48 52/5/48 51/5/48
f 52/5/48 45/5/48 38/5/48
f 38/5/48 45/5/48 46/5/48
f 38/5/48 46/5/48 37/5/48
f 37/5/48 46/5/48 49/5/48
f 37/5/48 49/5/48 53/5/48
f 53/5/48 49/5/48 54/5/48
f 53/5/48 54/5/48 41/5/48
f 41/5/48 54/5/48 55/5/48
f 41/5/48 55/5/48 43/5/48
f 56/4/49 37/5/43 53/5/49
f 37/5/43 56/4/49 39/4/43
f 50/4/47 54/5/28 49/5/47
f 54/5/28 50/4/47 57/4/28
f 47/4/16 51/5/50 58/4/51
f 51/5/50 47/4/16 45/5/16
f 55/5/52 44/4/44 43/5/44
f 44/4/44 55/5/52 59/4/52
f 54/5/28 59/4/52 55/5/53
f 59/4/52 54/5/28 57/4/28
f 58/4/50 52/5/54 60/4/54
f 52/5/54 58/4/50 51/5/50
f 42/4/14 53/5/49 41/5/14
f 53/5/49 42/4/14 56/4/49
f 60/4/54 38/5/21 40/4/21
f 38/5/21 60/4/54 52/5/55
f 3/1/1 2/1/1 1/1/1
f 2/1/1 3/1/1 4/1/1
f 4/1/1 3/1/1 5/1/1
f 5/1/1 3/1/1 6/1/1
f 5/1/1 6/1/1 7/1/1
f 5/1/1 7/1/1 8/1/1
f 8/1/1 7/1/1 9/1/1
f 8/1/1 9/1/1 10/1/1
f 10/1/1 9/1/1 11/1/1
f 11/1/1 9/1/1 12/1/1
f 15/2/2 14/3/3 13/2/4
f 14/3/3 15/2/5 16/3/6
f 19/2/7 18/3/8 17/3/9
f 18/3/8 19/2/10 20/2/11
f 23/3/12 22/2/13 21/2/14
f 22/2/13 23/3/12 24/3/15
f 27/2/16 26/3/17 25/3/18
f 26/3/17 27/2/16 28/2/19
f 20/2/11 29/3/20 18/3/8
f 29/3/20 20/2/11 30/2/21
f 24/3/15 31/2/22 22/2/13
f 31/2/23 24/3/15 32/3/24
f 35/2/25 34/3/26 33/3/27
f 34/3/26 35/2/25 36/2/28
f 28/2/29 33/3/27 26/3/17
f 33/3/27 28/2/19 35/2/25
f 21/2/14 17/3/9 23/3/12
f 17/3/9 21/2/14 19/2/10
f 34/3/26 31/2/22 32/3/24
f 31/2/22 34/3/26 36/2/28
f 13/2/4 29/3/20 30/2/21
f 29/3/20 13/2/4 14/3/3
f 15/2/2 25/3/18 16/3/6
f 25/3/18 15/2/2 27/2/16
f 31/2/22 12/1/30 22/2/13
f 12/1/30 31/2/23 11/1/31
f 31/2/22 10/1/32 11/1/31
f 10/1/32 31/2/22 36/2/28
f 8/1/33 36/2/28 35/2/25
f 36/2/28 8/1/33 10/1/32
f 28/2/19 8/1/33 35/2/25
f 8/1/33 28/2/29 5/1/34
f 1/1/35 15/2/2 13/2/4
f 15/2/5 1/1/35 2/1/36
f 6/1/37 30/2/21 20/2/11
f 30/2/21 6/1/37 3/1/38
f 7/1/39 20/2/11 19/2/10
f 20/2/40 7/1/39 6/1/37
f 3/1/38 13/2/4 30/2/21
f 13/2/4 3/1/38 1/1/35
f 9/1/41 19/2/10 21/2/14
f 19/2/10 9/1/41 7/1/39
f 22/2/13 9/1/41 21/2/14
f 9/1/41 22/2/13 12/1/30
f 4/1/42 28/2/19 27/2/16
f 28/2/19 4/1/42 5/1/34
f 4/1/42 15/2/2 2/1/36
f 15/2/2 4/1/42 27/2/16
f 39/4/43 38/5/21 37/5/43
f 38/5/21 39/4/43 40/4/21
f 43/5/44 42/4/14 41/5/14
f 42/4/14 43/5/44 44/4/45
f 47/4/16 46/5/46 45/5/16
f 46/5/46 47/4/16 48/4/46
f 48/4/46 49/5/47 46/5/46
f 49/5/47 48/4/46 50/4/47
f 45/5/48 52/5/48 51/5/48
f 52/5/48 45/5/48 38/5/48
f 38/5/48 45/5/48 46/5/48
f 38/5/48 46/5/48 37/5/48
f 37/5/48 46/5/48 49/5/48
f 37/5/48 49/5/48 53/5/48
f 53/5/48 49/5/48 54/5/48
f 53/5/48 54/5/48 41/5/48
f 41/5/48 54/5/48 55/5/48
f 41/5/48 55/5/48 43/5/48
f 56/4/49 37/5/43 53/5/49
f 37/5/43 56/4/49 39/4/43
f 50/4/47 54/5/28 49/5/47
f 54/5/28 50/4/47 57/4/28
f 47/4/16 51/5/50 58/4/51
f 51/5/50 47/4/16 45/5/16
f 55/5/52 44/4/44 43/5/44
f 44/4/44 55/5/52 59/4/52
f 54/5/28 59/4/52 55/5/53
f 59/4/52 54/5/28 57/4/28
f 58/4/50 52/5/54 60/4/54
f 52/5/54 58/4/50 51/5/50
f 42/4/14 53/5/49 41/5/14
f 53/5/49 42/4/14 56/4/49
f 60/4/54 38/5/21 40/4/21
f 38/5/21 60/4/54 52/5/55
