# Blender 4.0.2
# www.blender.org
mtllib block-snow-low-large.013.mtl
o block-snow-low-large.001
v 1.000000 0.726250 -0.500000
v 0.919820 0.919820 -0.500000
v 1.000000 -0.726250 -0.500000
v 0.919820 -0.919820 -0.500000
v 0.726250 1.000000 -0.500000
v 0.726250 -1.000000 -0.500000
v -0.726250 1.000000 -0.500000
v -0.726250 -1.000000 -0.500000
v -0.919820 0.919820 -0.500000
v -0.919820 -0.919820 -0.500000
v -1.000000 0.726250 -0.500000
v -1.000000 -0.726250 -0.500000
v 1.041062 -0.753625 -0.375000
v 1.000000 -0.726250 -0.250000
v 1.041062 0.753625 -0.375000
v 1.000000 0.726250 -0.250000
v -0.726250 -1.000000 -0.250000
v 0.726250 -1.000000 -0.250000
v -0.753625 -1.041062 -0.375000
v 0.753625 -1.041062 -0.375000
v -0.956874 -0.956874 -0.375000
v -1.041062 -0.753625 -0.375000
v -0.919820 -0.919820 -0.250000
v -1.000000 -0.726250 -0.250000
v 0.919820 0.919820 -0.250000
v 0.726250 1.000000 -0.250000
v 0.956874 0.956874 -0.375000
v 0.753625 1.041062 -0.375000
v 0.919820 -0.919820 -0.250000
v 0.956874 -0.956874 -0.375000
v -1.041062 0.753625 -0.375000
v -1.000000 0.726250 -0.250000
v -0.726250 1.000000 -0.250000
v -0.919820 0.919820 -0.250000
v -0.753625 1.041062 -0.375000
v -0.956874 0.956874 -0.375000
v 0.726250 -1.000000 -0.000000
v 0.919820 -0.919820 -0.000000
v 0.726250 -1.000000 -0.250000
v 0.919820 -0.919820 -0.250000
v -0.919820 -0.919820 -0.000000
v -0.919820 -0.919820 -0.250000
v -1.000000 -0.726250 -0.000000
v -1.000000 -0.726250 -0.250000
v 0.919820 0.919820 0.000000
v 0.726250 1.000000 0.000000
v 0.919820 0.919820 -0.250000
v 0.726250 1.000000 -0.250000
v -0.726250 1.000000 0.000000
v -0.726250 1.000000 -0.250000
v 1.000000 0.726250 0.000000
v 1.000000 -0.726250 -0.000000
v -0.726250 -1.000000 -0.000000
v -0.919820 0.919820 0.000000
v -1.000000 0.726250 0.000000
v -0.726250 -1.000000 -0.250000
v -0.919820 0.919820 -0.250000
v 1.000000 0.726250 -0.250000
v -1.000000 0.726250 -0.250000
v 1.000000 -0.726250 -0.250000
vn -0.0000 -0.0000 -1.0000
vn 0.9774 0.2112 -0.0000
vn 0.9255 -0.1662 0.3404
vn 0.9774 -0.2112 -0.0000
vn 0.9255 0.1662 0.3404
vn -0.2112 -0.9774 -0.0000
vn 0.1662 -0.9255 0.3404
vn -0.1662 -0.9255 0.3404
vn 0.2112 -0.9774 -0.0000
vn -0.6521 -0.6521 0.3866
vn -0.9774 -0.2112 -0.0000
vn -0.7071 -0.7071 -0.0000
vn -0.9255 -0.1662 0.3404
vn 0.7071 0.7071 -0.0000
vn 0.1662 0.9255 0.3404
vn 0.6521 0.6521 0.3866
vn 0.2112 0.9774 -0.0000
vn 0.6521 -0.6521 0.3866
vn 0.7071 -0.7071 -0.0000
vn -0.9774 0.2112 -0.0000
vn -0.9255 0.1662 0.3404
vn -0.2112 0.9774 -0.0000
vn -0.6521 0.6521 0.3866
vn -0.1662 0.9255 0.3404
vn -0.7071 0.7071 -0.0000
vn -0.9255 -0.1662 -0.3404
vn -0.9255 0.1662 -0.3404
vn -0.6521 0.6521 -0.3866
vn -0.1662 0.9255 -0.3404
vn 0.1662 0.9255 -0.3404
vn 0.9255 -0.1662 -0.3404
vn 0.9255 0.1662 -0.3404
vn 0.1662 -0.9255 -0.3404
vn 0.6521 -0.6521 -0.3866
vn -0.1662 -0.9255 -0.3404
vn -0.6521 -0.6521 -0.3866
vn 0.6521 0.6521 -0.3866
vn 0.1951 -0.9808 -0.0000
vn -0.9808 -0.1951 -0.0000
vn 0.1951 0.9808 -0.0000
vn -0.1951 0.9808 -0.0000
vn -0.0000 -0.0000 1.0000
vn -0.1951 -0.9808 -0.0000
vn 0.9808 0.1951 -0.0000
vn -0.9808 0.1951 -0.0000
vn 0.9808 -0.1951 -0.0000
vt 0.593750 0.225000
vt 0.593750 0.125000
vt 0.593750 0.025000
vt 0.718750 0.025000
vt 0.718750 0.225000
s 0
usemtl colormap.054
f 3/1/1 2/1/1 1/1/1
f 2/1/1 3/1/1 4/1/1
f 2/1/1 4/1/1 5/1/1
f 5/1/1 4/1/1 6/1/1
f 5/1/1 6/1/1 7/1/1
f 7/1/1 6/1/1 8/1/1
f 7/1/1 8/1/1 9/1/1
f 9/1/1 8/1/1 10/1/1
f 9/1/1 10/1/1 11/1/1
f 11/1/1 10/1/1 12/1/1
f 15/2/2 14/3/3 13/2/4
f 14/3/3 15/2/2 16/3/5
f 19/2/6 18/3/7 17/3/8
f 18/3/7 19/2/6 20/2/9
f 23/3/10 22/2/11 21/2/12
f 22/2/11 23/3/10 24/3/13
f 27/2/14 26/3/15 25/3/16
f 26/3/15 27/2/14 28/2/17
f 20/2/9 29/3/18 18/3/7
f 29/3/18 20/2/9 30/2/19
f 24/3/13 31/2/20 22/2/11
f 31/2/20 24/3/13 32/3/21
f 35/2/22 34/3/23 33/3/24
f 34/3/23 35/2/22 36/2/25
f 26/3/15 35/2/22 33/3/24
f 35/2/22 26/3/15 28/2/17
f 21/2/12 17/3/8 23/3/10
f 17/3/8 21/2/12 19/2/6
f 34/3/23 31/2/20 32/3/21
f 31/2/20 34/3/23 36/2/25
f 13/2/4 29/3/18 30/2/19
f 29/3/18 13/2/4 14/3/3
f 15/2/2 25/3/16 16/3/5
f 25/3/16 15/2/2 27/2/14
f 31/2/20 12/1/26 22/2/11
f 12/1/26 31/2/20 11/1/27
f 31/2/20 9/1/28 11/1/27
f 9/1/28 31/2/20 36/2/25
f 7/1/29 36/2/25 35/2/22
f 36/2/25 7/1/29 9/1/28
f 28/2/17 7/1/29 35/2/22
f 7/1/29 28/2/17 5/1/30
f 3/1/31 15/2/2 13/2/4
f 15/2/2 3/1/31 1/1/32
f 6/1/33 30/2/19 20/2/9
f 30/2/19 6/1/33 4/1/34
f 8/1/35 20/2/9 19/2/6
f 20/2/9 8/1/35 6/1/33
f 4/1/34 13/2/4 30/2/19
f 13/2/4 4/1/34 3/1/31
f 10/1/36 19/2/6 21/2/12
f 19/2/6 10/1/36 8/1/35
f 22/2/11 10/1/36 21/2/12
f 10/1/36 22/2/11 12/1/26
f 2/1/37 28/2/17 27/2/14
f 28/2/17 2/1/37 5/1/30
f 2/1/37 15/2/2 1/1/32
f 15/2/2 2/1/37 27/2/14
f 39/4/38 38/5/19 37/5/38
f 38/5/19 39/4/38 40/4/19
f 43/5/39 42/4/12 41/5/12
f 42/4/12 43/5/39 44/4/39
f 47/4/14 46/5/40 45/5/14
f 46/5/40 47/4/14 48/4/40
f 46/5/40 50/4/41 49/5/41
f 50/4/41 46/5/40 48/4/40
f 45/5/42 52/5/42 51/5/42
f 52/5/42 45/5/42 38/5/42
f 38/5/42 45/5/42 46/5/42
f 38/5/42 46/5/42 37/5/42
f 37/5/42 46/5/42 49/5/42
f 37/5/42 49/5/42 53/5/42
f 53/5/42 49/5/42 54/5/42
f 53/5/42 54/5/42 41/5/42
f 41/5/42 54/5/42 55/5/42
f 41/5/42 55/5/42 43/5/42
f 56/4/43 37/5/38 53/5/43
f 37/5/38 56/4/43 39/4/38
f 50/4/41 54/5/25 49/5/41
f 54/5/25 50/4/41 57/4/25
f 47/4/14 51/5/44 58/4/44
f 51/5/44 47/4/14 45/5/14
f 55/5/45 44/4/39 43/5/39
f 44/4/39 55/5/45 59/4/45
f 54/5/25 59/4/45 55/5/45
f 59/4/45 54/5/25 57/4/25
f 58/4/44 52/5/46 60/4/46
f 52/5/46 58/4/44 51/5/44
f 42/4/12 53/5/43 41/5/12
f 53/5/43 42/4/12 56/4/43
f 60/4/46 38/5/19 40/4/19
f 38/5/19 60/4/46 52/5/46
f 3/1/1 2/1/1 1/1/1
f 2/1/1 3/1/1 4/1/1
f 2/1/1 4/1/1 5/1/1
f 5/1/1 4/1/1 6/1/1
f 5/1/1 6/1/1 7/1/1
f 7/1/1 6/1/1 8/1/1
f 7/1/1 8/1/1 9/1/1
f 9/1/1 8/1/1 10/1/1
f 9/1/1 10/1/1 11/1/1
f 11/1/1 10/1/1 12/1/1
f 15/2/2 14/3/3 13/2/4
f 14/3/3 15/2/2 16/3/5
f 19/2/6 18/3/7 17/3/8
f 18/3/7 19/2/6 20/2/9
f 23/3/10 22/2/11 21/2/12
f 22/2/11 23/3/10 24/3/13
f 27/2/14 26/3/15 25/3/16
f 26/3/15 27/2/14 28/2/17
f 20/2/9 29/3/18 18/3/7
f 29/3/18 20/2/9 30/2/19
f 24/3/13 31/2/20 22/2/11
f 31/2/20 24/3/13 32/3/21
f 35/2/22 34/3/23 33/3/24
f 34/3/23 35/2/22 36/2/25
f 26/3/15 35/2/22 33/3/24
f 35/2/22 26/3/15 28/2/17
f 21/2/12 17/3/8 23/3/10
f 17/3/8 21/2/12 19/2/6
f 34/3/23 31/2/20 32/3/21
f 31/2/20 34/3/23 36/2/25
f 13/2/4 29/3/18 30/2/19
f 29/3/18 13/2/4 14/3/3
f 15/2/2 25/3/16 16/3/5
f 25/3/16 15/2/2 27/2/14
f 31/2/20 12/1/26 22/2/11
f 12/1/26 31/2/20 11/1/27
f 31/2/20 9/1/28 11/1/27
f 9/1/28 31/2/20 36/2/25
f 7/1/29 36/2/25 35/2/22
f 36/2/25 7/1/29 9/1/28
f 28/2/17 7/1/29 35/2/22
f 7/1/29 28/2/17 5/1/30
f 3/1/31 15/2/2 13/2/4
f 15/2/2 3/1/31 1/1/32
f 6/1/33 30/2/19 20/2/9
f 30/2/19 6/1/33 4/1/34
f 8/1/35 20/2/9 19/2/6
f 20/2/9 8/1/35 6/1/33
f 4/1/34 13/2/4 30/2/19
f 13/2/4 4/1/34 3/1/31
f 10/1/36 19/2/6 21/2/12
f 19/2/6 10/1/36 8/1/35
f 22/2/11 10/1/36 21/2/12
f 10/1/36 22/2/11 12/1/26
f 2/1/37 28/2/17 27/2/14
f 28/2/17 2/1/37 5/1/30
f 2/1/37 15/2/2 1/1/32
f 15/2/2 2/1/37 27/2/14
f 39/4/38 38/5/19 37/5/38
f 38/5/19 39/4/38 40/4/19
f 43/5/39 42/4/12 41/5/12
f 42/4/12 43/5/39 44/4/39
f 47/4/14 46/5/40 45/5/14
f 46/5/40 47/4/14 48/4/40
f 46/5/40 50/4/41 49/5/41
f 50/4/41 46/5/40 48/4/40
f 45/5/42 52/5/42 51/5/42
f 52/5/42 45/5/42 38/5/42
f 38/5/42 45/5/42 46/5/42
f 38/5/42 46/5/42 37/5/42
f 37/5/42 46/5/42 49/5/42
f 37/5/42 49/5/42 53/5/42
f 53/5/42 49/5/42 54/5/42
f 53/5/42 54/5/42 41/5/42
f 41/5/42 54/5/42 55/5/42
f 41/5/42 55/5/42 43/5/42
f 56/4/43 37/5/38 53/5/43
f 37/5/38 56/4/43 39/4/38
f 50/4/41 54/5/25 49/5/41
f 54/5/25 50/4/41 57/4/25
f 47/4/14 51/5/44 58/4/44
f 51/5/44 47/4/14 45/5/14
f 55/5/45 44/4/39 43/5/39
f 44/4/39 55/5/45 59/4/45
f 54/5/25 59/4/45 55/5/45
f 59/4/45 54/5/25 57/4/25
f 58/4/44 52/5/46 60/4/46
f 52/5/46 58/4/44 51/5/44
f 42/4/12 53/5/43 41/5/12
f 53/5/43 42/4/12 56/4/43
f 60/4/46 38/5/19 40/4/19
f 38/5/19 60/4/46 52/5/46
